<svg xmlns="http://www.w3.org/2000/svg" fill="none" viewBox="0 0 999 999">
  
<g transform="matrix(4.995,0,0,4.995,0,0)"><g id="wireframe-london-200-ico_f6G4eIpLACQPjMRJ">
    <path id="Vector" fill="#313553" d="M47.4139 131.098H28.9829V139.421H47.4139V131.098Z"></path>
    <path id="Vector_2" fill="#313553" d="M47.4139 143.112H28.9829V151.435H47.4139V143.112Z"></path>
    <path id="Vector_3" fill="#313553" d="M47.4139 155.126H28.9829V178.116H47.4139V155.126Z"></path>
    <path id="Vector_4" fill="#313553" d="M162.954 39.219C164.018 39.219 165.057 39.5344 165.942 40.1253C166.826 40.7163 167.515 41.5562 167.923 42.5389C168.33 43.5216 168.436 44.603 168.229 45.6462C168.021 46.6894 167.509 47.6477 166.757 48.3998C166.005 49.1519 165.046 49.6641 164.003 49.8717C162.96 50.0792 161.879 49.9727 160.896 49.5656C159.913 49.1586 159.073 48.4693 158.482 47.5849C157.891 46.7004 157.576 45.6607 157.576 44.597C157.576 43.1708 158.143 41.8032 159.152 40.7948C160.16 39.7863 161.528 39.2195 162.954 39.219V39.219Z"></path>
    <path id="Vector_5" fill="#313553" d="M162.954 64.448C164.018 64.4476 165.058 64.7628 165.943 65.3536C166.828 65.9444 167.518 66.7844 167.926 67.7673C168.333 68.7502 168.44 69.8319 168.233 70.8756C168.026 71.9193 167.514 72.8781 166.762 73.6308C166.009 74.3835 165.051 74.8963 164.007 75.1042C162.964 75.3122 161.882 75.2061 160.899 74.7992C159.916 74.3924 159.075 73.7032 158.484 72.8186C157.892 71.9341 157.576 70.8941 157.576 69.83C157.576 68.4032 158.142 67.0347 159.151 66.0255C160.159 65.0162 161.527 64.4488 162.954 64.448V64.448Z"></path>
    <path id="Vector_6" fill="#313553" d="M22.779 60.874C28.4272 60.874 33.006 56.2953 33.006 50.647C33.006 44.9988 28.4272 40.42 22.779 40.42C17.1308 40.42 12.552 44.9988 12.552 50.647C12.552 56.2953 17.1308 60.874 22.779 60.874Z"></path>
    <path id="Vector_7" fill="#313553" d="M116.731 31.3901C117.748 31.3901 118.573 30.5654 118.573 29.5481C118.573 28.5307 117.748 27.7061 116.731 27.7061C115.714 27.7061 114.889 28.5307 114.889 29.5481C114.889 30.5654 115.714 31.3901 116.731 31.3901Z"></path>
    <path id="Vector_8" fill="#313553" d="M46.07 41.061C47.0873 41.061 47.912 40.2363 47.912 39.219C47.912 38.2016 47.0873 37.377 46.07 37.377C45.0527 37.377 44.228 38.2016 44.228 39.219C44.228 40.2363 45.0527 41.061 46.07 41.061Z"></path>
    <path id="Vector_9" fill="#FFE8BB" d="M31.7999 109.976C32.5221 109.976 33.228 110.191 33.8283 110.592C34.4286 110.993 34.8964 111.564 35.1725 112.231C35.4486 112.898 35.5207 113.632 35.3795 114.341C35.2384 115.049 34.8904 115.699 34.3795 116.21C33.8687 116.72 33.218 117.068 32.5096 117.208C31.8013 117.349 31.0672 117.276 30.4002 116.999C29.7331 116.723 29.1631 116.254 28.7622 115.654C28.3613 115.053 28.1476 114.347 28.1479 113.625C28.1478 113.146 28.2422 112.671 28.4257 112.228C28.6093 111.785 28.8783 111.382 29.2175 111.043C29.5567 110.705 29.9593 110.436 30.4025 110.253C30.8456 110.069 31.3205 109.975 31.7999 109.976V109.976Z"></path>
    <path id="Vector_10" fill="#FFE8BB" d="M155.951 25.163C157.968 25.163 159.603 23.528 159.603 21.511C159.603 19.4941 157.968 17.859 155.951 17.859C153.934 17.859 152.299 19.4941 152.299 21.511C152.299 23.528 153.934 25.163 155.951 25.163Z"></path>
    <path id="Vector_11" fill="#FFE8BB" d="M86.263 5.844C86.9853 5.8434 87.6915 6.05698 88.2924 6.45773C88.8932 6.85848 89.3618 7.4284 89.6388 8.09543C89.9158 8.76246 89.9888 9.49665 89.8485 10.2052C89.7083 10.9137 89.3611 11.5647 88.8508 12.0759C88.3406 12.5871 87.6903 12.9355 86.982 13.0771C86.2738 13.2187 85.5395 13.1471 84.8719 12.8714C84.2044 12.5957 83.6336 12.1283 83.2317 11.5282C82.8298 10.9281 82.6148 10.2222 82.614 9.5C82.6131 9.02021 82.7068 8.54496 82.8898 8.10143C83.0727 7.65791 83.3414 7.25482 83.6803 6.91524C84.0192 6.57565 84.4218 6.30624 84.865 6.12243C85.3082 5.93861 85.7832 5.84399 86.263 5.844V5.844Z"></path>
    <path id="Vector_12" fill="#FFE8BB" d="M15.776 25.163C17.793 25.163 19.428 23.528 19.428 21.511C19.428 19.4941 17.793 17.859 15.776 17.859C13.7591 17.859 12.124 19.4941 12.124 21.511C12.124 23.528 13.7591 25.163 15.776 25.163Z"></path>
    <path id="Vector_13" fill="#a84646" d="M145.017 117.736L140.489 118.408C139.492 118.41 138.531 118.036 137.797 117.361C137.063 116.687 136.61 115.761 136.528 114.767C136.528 114.752 136.528 114.733 136.528 114.721C136.357 113.755 136.541 112.759 137.045 111.918C137.549 111.076 138.34 110.444 139.273 110.139L143.773 109.471C143.499 109.556 141.067 110.371 141.654 114.271C141.729 115.148 142.104 115.972 142.717 116.604C143.33 117.235 144.143 117.635 145.017 117.736Z"></path>
    <path id="Vector_14" fill="#a84646" d="M176.416 35.3161V90.5161C176.416 90.8559 176.28 91.1817 176.04 91.422C175.8 91.6623 175.474 91.7975 175.134 91.7981H150.777C150.437 91.7975 150.112 91.6623 149.872 91.4219C149.631 91.1816 149.496 90.8558 149.496 90.5161V35.3161C149.497 34.9764 149.632 34.6508 149.872 34.4105C150.112 34.1702 150.437 34.0349 150.777 34.0341H175.134C175.474 34.0348 175.799 34.1702 176.04 34.4104C176.28 34.6507 176.415 34.9763 176.416 35.3161V35.3161ZM168.335 44.6001C168.335 43.5359 168.02 42.4956 167.429 41.6106C166.839 40.7257 165.999 40.0358 165.016 39.6283C164.033 39.2207 162.951 39.1138 161.907 39.3211C160.863 39.5284 159.905 40.0405 159.152 40.7928C158.399 41.545 157.887 42.5035 157.679 43.5471C157.471 44.5907 157.577 45.6725 157.984 46.6557C158.391 47.6389 159.081 48.4794 159.965 49.0707C160.85 49.6621 161.89 49.9779 162.954 49.9781C164.381 49.9783 165.749 49.4119 166.758 48.4034C167.767 47.3948 168.335 46.0267 168.335 44.6001ZM168.335 69.8331C168.335 68.769 168.02 67.7286 167.429 66.8436C166.839 65.9587 165.999 65.2688 165.016 64.8613C164.033 64.4537 162.951 64.3468 161.907 64.5541C160.863 64.7614 159.905 65.2735 159.152 66.0258C158.399 66.778 157.887 67.7365 157.679 68.7801C157.471 69.8237 157.577 70.9055 157.984 71.8887C158.391 72.8719 159.081 73.7124 159.965 74.3037C160.85 74.8951 161.89 75.2109 162.954 75.2111C164.381 75.2111 165.75 74.6441 166.759 73.635C167.768 72.6259 168.335 71.2572 168.335 69.8301V69.8331Z"></path>
    <path id="Vector_15" fill="#a84646" d="M52.2579 127.434V182.629C52.2576 182.969 52.1226 183.295 51.8825 183.535C51.6423 183.775 51.3166 183.91 50.9769 183.911H26.6199C26.28 183.91 25.9543 183.775 25.714 183.535C25.4737 183.295 25.3384 182.969 25.3379 182.629V127.434C25.3379 127.094 25.473 126.768 25.7134 126.527C25.9538 126.287 26.2799 126.152 26.6199 126.152H50.9769C51.1452 126.152 51.3119 126.185 51.4673 126.25C51.6228 126.314 51.7641 126.408 51.883 126.528C52.002 126.647 52.0964 126.788 52.1607 126.943C52.225 127.099 52.258 127.266 52.2579 127.434ZM47.4129 178.116V155.126H28.9829V178.116H47.4129ZM47.4129 151.436V143.112H28.9829V151.436H47.4129ZM47.4129 139.421V131.1H28.9829V139.423L47.4129 139.421Z"></path>
    <path id="Vector_16" fill="#a84646" d="M106.728 23.2999V78.4999C106.728 78.8404 106.594 79.1671 106.353 79.4082C106.113 79.6493 105.787 79.7852 105.446 79.7859H81.0891C80.7488 79.7849 80.4229 79.6489 80.1827 79.4078C79.9426 79.1667 79.8078 78.8402 79.8081 78.4999V23.2999C79.8084 22.9602 79.9434 22.6344 80.1835 22.3941C80.4237 22.1537 80.7494 22.0185 81.0891 22.0179H105.446C105.786 22.0182 106.112 22.1534 106.352 22.3937C106.593 22.6341 106.728 22.96 106.728 23.2999Z"></path>
    <path id="Vector_17" fill="#a84646" d="M36.2411 35.3161V90.5161C36.2411 90.6848 36.2078 90.852 36.1432 91.0079C36.0785 91.1638 35.9838 91.3054 35.8643 91.4247C35.7449 91.5439 35.6031 91.6385 35.4471 91.7029C35.2911 91.7673 35.1239 91.8003 34.9551 91.8001H10.6001C10.4318 91.8001 10.2651 91.7669 10.1096 91.7024C9.95416 91.638 9.8129 91.5436 9.69394 91.4245C9.57497 91.3055 9.48064 91.1641 9.41632 91.0086C9.352 90.853 9.31896 90.6864 9.3191 90.5181V35.3181C9.3187 35.1496 9.35154 34.9827 9.41574 34.8269C9.47994 34.6712 9.57424 34.5296 9.69323 34.4103C9.81222 34.291 9.95357 34.1964 10.1092 34.1319C10.2648 34.0673 10.4316 34.0341 10.6001 34.0341H34.9551C35.2956 34.0338 35.6222 34.1686 35.8633 34.409C36.1044 34.6494 36.2403 34.9756 36.2411 35.3161V35.3161ZM33.0061 50.6471C33.0063 48.6243 32.4067 46.6469 31.283 44.965C30.1594 43.283 28.5622 41.972 26.6935 41.1978C24.8248 40.4236 22.7684 40.2209 20.7845 40.6154C18.8006 41.0099 16.9782 41.9839 15.5479 43.4141C14.1175 44.8444 13.1434 46.6666 12.7487 48.6505C12.354 50.6344 12.5565 52.6907 13.3305 54.5595C14.1045 56.4283 15.4153 58.0256 17.0972 59.1494C18.779 60.2732 20.7563 60.8731 22.7791 60.8731C25.4913 60.8731 28.0924 59.7957 30.0103 57.878C31.9282 55.9603 33.0058 53.3593 33.0061 50.6471Z"></path>
    <path id="Vector_18" fill="#313553" d="M140.759 36.517C141.124 36.5164 141.481 36.6241 141.785 36.8265C142.088 37.0289 142.325 37.3168 142.465 37.6539C142.605 37.991 142.642 38.362 142.571 38.72C142.5 39.078 142.324 39.4068 142.066 39.6649C141.808 39.9229 141.479 40.0986 141.121 40.1697C140.763 40.2407 140.392 40.204 140.055 40.064C139.718 39.9241 139.43 39.6873 139.227 39.3836C139.025 39.0799 138.917 38.7229 138.918 38.358C138.918 37.8698 139.112 37.4017 139.457 37.0565C139.803 36.7113 140.271 36.5172 140.759 36.517V36.517Z"></path>
    <path id="Vector_19" fill="#313553" d="M140.759 56.222C141.776 56.222 142.601 55.3973 142.601 54.38C142.601 53.3627 141.776 52.538 140.759 52.538C139.742 52.538 138.917 53.3627 138.917 54.38C138.917 55.3973 139.742 56.222 140.759 56.222Z"></path>
    <path id="Vector_20" fill="#313553" d="M140.759 64.233C141.776 64.233 142.601 63.4083 142.601 62.3909C142.601 61.3736 141.776 60.549 140.759 60.549C139.742 60.549 138.917 61.3736 138.917 62.3909C138.917 63.4083 139.742 64.233 140.759 64.233Z"></path>
    <path id="Vector_21" fill="#313553" d="M140.759 68.556C141.124 68.5554 141.481 68.6631 141.784 68.8653C142.088 69.0675 142.325 69.3552 142.465 69.692C142.605 70.0289 142.642 70.3997 142.571 70.7576C142.5 71.1154 142.325 71.4443 142.067 71.7025C141.81 71.9607 141.481 72.1367 141.123 72.2083C140.766 72.2798 140.395 72.2436 140.058 72.1042C139.721 71.9649 139.432 71.7287 139.229 71.4255C139.027 71.1224 138.918 70.7658 138.918 70.401C138.918 70.159 138.965 69.9192 139.057 69.6954C139.15 69.4717 139.285 69.2683 139.456 69.097C139.627 68.9256 139.83 68.7896 140.054 68.6968C140.277 68.604 140.517 68.5562 140.759 68.556V68.556Z"></path>
    <path id="Vector_22" fill="#313553" d="M62.0881 146.378C62.4528 146.378 62.8094 146.485 63.1129 146.688C63.4164 146.89 63.653 147.178 63.793 147.514C63.9329 147.851 63.9698 148.222 63.8991 148.58C63.8283 148.938 63.653 149.266 63.3954 149.524C63.1378 149.783 62.8094 149.959 62.4518 150.03C62.0942 150.102 61.7234 150.066 61.3863 149.926C61.0492 149.787 60.7609 149.551 60.558 149.248C60.355 148.945 60.2465 148.589 60.2461 148.224C60.2458 147.735 60.4397 147.266 60.7851 146.92C61.1305 146.574 61.5991 146.379 62.0881 146.378V146.378Z"></path>
    <path id="Vector_23" fill="#313553" d="M62.0881 162.4C62.4525 162.4 62.8086 162.508 63.1116 162.711C63.4145 162.913 63.6506 163.201 63.79 163.537C63.9294 163.874 63.9658 164.244 63.8946 164.602C63.8235 164.959 63.6479 165.287 63.3902 165.545C63.1325 165.802 62.8042 165.978 62.4468 166.049C62.0895 166.12 61.7191 166.083 61.3825 165.944C61.0459 165.804 60.7583 165.568 60.556 165.265C60.3538 164.962 60.2459 164.605 60.2461 164.241C60.2469 163.753 60.4412 163.285 60.7865 162.94C61.1318 162.595 61.5999 162.401 62.0881 162.4V162.4Z"></path>
    <path id="Vector_24" fill="#313553" d="M103.736 113.578C105.205 113.731 106.689 113.626 108.121 113.266C111.306 112.42 113.109 109.023 113.109 109.023C114.225 110.581 115.53 111.994 116.993 113.231L102.778 115.2C103.133 114.703 103.452 114.182 103.732 113.64L103.736 113.578Z"></path>
    <path id="Vector_25" fill="#FFE8BB" d="M97.879 102.386C101.516 97.3021 110.816 89.4191 117.036 88.7861C118.715 88.6131 126.736 92.1261 132.999 94.9291C132.999 94.9291 147.599 94.4071 149.608 96.6741C157.939 106.051 165.239 131.701 166.664 134.55C168.089 137.399 188.623 148.865 195.429 152.386V193.872L155.317 169.604C152.772 169.916 150.199 169.916 147.654 169.604C126.108 165.42 97.235 143.615 91.644 141.024C87.537 139.124 86.56 135.149 86.044 132.481C85.9333 131.727 85.7628 130.984 85.534 130.257C85.1817 129.543 84.7133 128.892 84.148 128.331C83.472 127.589 82.662 126.821 81.94 126.107C81.3698 125.564 80.8419 124.978 80.361 124.354C79.7955 123.566 79.4749 122.63 79.4394 121.661C79.4038 120.692 79.6548 119.734 80.161 118.907C80.5418 118.217 81.0204 117.585 81.582 117.031C83.57 115.039 88.342 116.741 88.535 116.807C88.7215 115.354 89.2718 113.972 90.135 112.788C93.158 108.097 93.841 105.542 94.884 104.159C95.2214 103.693 95.681 103.33 96.212 103.109C96.6 102.942 97.18 102.691 97.879 102.386ZM103.736 113.578V113.644C103.456 114.186 103.137 114.707 102.782 115.204C101.41 117.256 99.4489 118.844 97.157 119.759C96.868 119.859 96.563 119.948 96.257 120.026C97.4845 121.296 98.542 122.719 99.403 124.261C99.6269 124.664 99.823 125.082 99.99 125.512C99.99 125.512 111.063 132.356 112.846 133.345C112.846 133.345 124.219 127.311 127.686 125.627C127.686 125.627 123.972 121.821 123.169 120.813L140.496 118.408L145.024 117.736L147.047 117.436C148.14 117.271 149.123 116.679 149.781 115.791C150.439 114.902 150.718 113.79 150.557 112.696C150.396 111.602 149.808 110.617 148.923 109.956C148.037 109.294 146.925 109.011 145.831 109.167L143.804 109.467C143.796 109.466 143.789 109.466 143.781 109.467L139.281 110.135L117.005 113.227C115.542 111.99 114.237 110.577 113.121 109.019C113.121 109.019 111.321 112.419 108.133 113.262C106.697 113.625 105.209 113.731 103.736 113.578V113.578Z"></path>
    <path id="Vector_26" stroke="#313553" stroke-linecap="round" stroke-linejoin="round" stroke-width=".772" d="M195.429 152.389C188.623 148.868 168.088 137.398 166.664 134.553C165.24 131.708 157.939 106.053 149.608 96.677C147.6 94.41 133 94.932 133 94.932"></path>
    <path id="Vector_27" stroke="#313553" stroke-linecap="round" stroke-linejoin="round" stroke-width=".772" d="M88.533 116.814C88.34 116.748 83.568 115.046 81.58 117.038C81.0184 117.592 80.5398 118.223 80.159 118.914C79.6528 119.741 79.4018 120.699 79.4374 121.668C79.473 122.637 79.7936 123.573 80.359 124.361C80.8399 124.985 81.3678 125.571 81.938 126.114C82.66 126.828 83.47 127.596 84.146 128.338C84.7114 128.899 85.1797 129.55 85.532 130.264C85.7608 130.991 85.9314 131.734 86.042 132.488C86.559 135.155 87.536 139.128 91.642 141.031C97.233 143.622 126.106 165.431 147.652 169.611C150.197 169.923 152.77 169.923 155.315 169.611L195.427 193.879"></path>
    <path id="Vector_28" stroke="#313553" stroke-linecap="round" stroke-linejoin="round" stroke-width=".772" d="M96.2419 120.022H96.2499C97.4775 121.292 98.535 122.715 99.396 124.257C99.6199 124.66 99.816 125.078 99.9829 125.508C99.9829 125.508 111.056 132.352 112.839 133.341C112.839 133.341 124.212 127.307 127.679 125.623C127.679 125.623 123.965 121.817 123.162 120.809L123.151 120.801"></path>
    <path id="Vector_29" stroke="#313553" stroke-linecap="round" stroke-linejoin="round" stroke-width=".772" d="M84.1471 128.334C84.1471 128.334 85.3211 124.102 86.2971 122.994C87.2731 121.886 84.7721 119.319 83.1741 118.173"></path>
    <path id="Vector_30" stroke="#313553" stroke-linecap="round" stroke-linejoin="round" stroke-width=".772" d="M87.9149 129.1C87.3149 130.023 85.8149 131.409 86.0429 132.482"></path>
    <path id="Vector_31" stroke="#313553" stroke-linecap="round" stroke-linejoin="round" stroke-width=".772" d="M117.036 113.266C117.036 113.266 117.02 113.254 116.993 113.231C115.53 111.994 114.225 110.581 113.109 109.023C113.109 109.023 111.309 112.423 108.121 113.266C106.689 113.626 105.205 113.731 103.736 113.578C103.105 113.523 102.478 113.419 101.863 113.266"></path>
    <path id="Vector_32" stroke="#313553" stroke-linecap="round" stroke-linejoin="round" stroke-width=".772" d="M103.732 113.644C103.451 114.186 103.133 114.707 102.778 115.204C101.406 117.255 99.4449 118.843 97.153 119.759C96.864 119.859 96.559 119.948 96.253 120.026C96.083 120.064 95.913 120.099 95.736 120.126C91.79 120.809 88.354 119.914 88.536 116.806C88.7224 115.353 89.2728 113.971 90.136 112.787C93.159 108.096 93.842 105.54 94.885 104.158C95.2224 103.692 95.682 103.329 96.213 103.108C96.613 102.938 97.189 102.687 97.888 102.382C100.965 101.016 106.455 98.495 110.111 96.582C114.593 94.238 116.018 94.748 118.67 95.868C121.322 96.988 134.87 104.631 134.87 104.631"></path>
    <path id="Vector_33" stroke="#313553" stroke-linecap="round" stroke-linejoin="round" stroke-width=".772" d="M139.991 98.024C138.713 97.507 136.068 96.302 132.999 94.932C126.737 92.132 118.715 88.616 117.036 88.789C110.816 89.419 101.516 97.302 97.8789 102.389"></path>
    <path id="Vector_34" stroke="#313553" stroke-linecap="round" stroke-linejoin="round" stroke-width=".772" d="M102.778 115.204L116.993 113.231L139.269 110.139"></path>
    <path id="Vector_35" stroke="#313553" stroke-linecap="round" stroke-linejoin="round" stroke-width=".772" d="M140.489 118.408L123.162 120.813L99.759 124.064"></path>
    <path id="Vector_36" stroke="#313553" stroke-linecap="round" stroke-linejoin="round" stroke-width=".772" d="M76.6541 121.033L72.1521 123.763L75.7431 124.689L76.5491 124.898L81.7961 126.253"></path>
    <path id="Vector_37" stroke="#313553" stroke-linecap="round" stroke-linejoin="round" stroke-width=".772" d="M80.1511 118.91L76.6541 121.033"></path>
    <path id="Vector_38" stroke="#313553" stroke-linecap="round" stroke-linejoin="round" stroke-width=".772" d="M145.017 117.736L140.489 118.408C139.492 118.41 138.531 118.036 137.797 117.361C137.063 116.687 136.61 115.761 136.528 114.767C136.528 114.752 136.528 114.733 136.528 114.721C136.357 113.755 136.541 112.759 137.045 111.918C137.549 111.076 138.34 110.444 139.273 110.139L143.773 109.471"></path>
    <path id="Vector_39" stroke="#313553" stroke-linecap="round" stroke-linejoin="round" stroke-width=".772" d="M145.017 117.736L147.04 117.436C148.133 117.271 149.116 116.679 149.774 115.791C150.432 114.902 150.711 113.79 150.55 112.696C150.389 111.602 149.801 110.617 148.916 109.956C148.03 109.294 146.918 109.011 145.824 109.167L143.797 109.467C143.789 109.466 143.782 109.466 143.774 109.467C143.5 109.552 141.068 110.367 141.655 114.267C141.729 115.145 142.104 115.969 142.717 116.602C143.329 117.234 144.142 117.635 145.017 117.736Z"></path>
    <path id="Vector_40" stroke="#313553" stroke-linecap="round" stroke-linejoin="round" stroke-width=".772" d="M72.1521 123.763L69.8711 123.983"></path>
    <path id="Vector_41" stroke="#313553" stroke-linecap="round" stroke-linejoin="round" stroke-width=".772" d="M34.974 94.8001H10.583C9.21611 94.7998 7.90532 94.2567 6.93882 93.2902C5.97231 92.3237 5.42922 91.0129 5.42896 89.6461V35.3391C5.42949 33.9723 5.97266 32.6617 6.93911 31.6952C7.90556 30.7288 9.21619 30.1856 10.583 30.1851H34.974C36.3408 30.1853 37.6516 30.7284 38.6181 31.6949C39.5846 32.6614 40.1277 33.9722 40.128 35.3391V89.6461C40.1277 91.0129 39.5846 92.3237 38.6181 93.2902C37.6516 94.2567 36.3408 94.7998 34.974 94.8001V94.8001Z"></path>
    <path id="Vector_42" stroke="#313553" stroke-linecap="round" stroke-linejoin="round" stroke-width=".772" d="M34.9551 91.8001H10.6001C10.4318 91.8001 10.2651 91.7669 10.1096 91.7024C9.95416 91.638 9.8129 91.5436 9.69394 91.4245C9.57497 91.3055 9.48064 91.1641 9.41632 91.0086C9.352 90.853 9.31896 90.6864 9.3191 90.5181V35.3181C9.3187 35.1496 9.35154 34.9827 9.41574 34.8269C9.47994 34.6712 9.57424 34.5296 9.69323 34.4103C9.81222 34.291 9.95357 34.1964 10.1092 34.1319C10.2648 34.0673 10.4316 34.0341 10.6001 34.0341H34.9551C35.2956 34.0338 35.6222 34.1686 35.8633 34.409C36.1044 34.6494 36.2403 34.9756 36.2411 35.3161V90.5161C36.2411 90.6848 36.2078 90.852 36.1432 91.0079C36.0785 91.1638 35.9838 91.3054 35.8643 91.4247C35.7449 91.5439 35.6031 91.6385 35.4471 91.7029C35.2911 91.7673 35.1239 91.8003 34.9551 91.8001Z"></path>
    <path id="Vector_43" stroke="#313553" stroke-linecap="round" stroke-linejoin="round" stroke-width=".772" d="M15.749 32.073H28.608"></path>
    <path id="Vector_44" stroke="#313553" stroke-linecap="round" stroke-linejoin="round" stroke-width=".772" d="M30.882 21.9041H22.177"></path>
    <path id="Vector_45" stroke="#313553" stroke-linecap="round" stroke-linejoin="round" stroke-width=".772" d="M15.776 25.163C17.793 25.163 19.428 23.528 19.428 21.511C19.428 19.4941 17.793 17.859 15.776 17.859C13.7591 17.859 12.124 19.4941 12.124 21.511C12.124 23.528 13.7591 25.163 15.776 25.163Z"></path>
    <path id="Vector_46" stroke="#313553" stroke-linecap="round" stroke-linejoin="round" stroke-width=".772" d="M50.9999 186.915H26.6049C25.9281 186.915 25.2578 186.782 24.6324 186.523C24.0071 186.264 23.4388 185.884 22.9602 185.406C22.4816 184.927 22.102 184.359 21.843 183.733C21.584 183.108 21.4508 182.438 21.4509 181.761V127.453C21.4508 126.776 21.584 126.106 21.843 125.481C22.102 124.855 22.4816 124.287 22.9603 123.809C23.4389 123.33 24.0071 122.951 24.6325 122.692C25.2579 122.433 25.9281 122.3 26.6049 122.3H50.9999C52.3666 122.3 53.6772 122.843 54.6437 123.809C55.6102 124.776 56.1534 126.086 56.1539 127.453V181.761C56.1534 183.128 55.6102 184.438 54.6438 185.405C53.6773 186.371 52.3667 186.914 50.9999 186.915Z"></path>
    <path id="Vector_47" stroke="#313553" stroke-linecap="round" stroke-linejoin="round" stroke-width=".772" d="M50.9769 183.911H26.6199C26.28 183.91 25.9543 183.775 25.714 183.535C25.4737 183.295 25.3384 182.969 25.3379 182.629V127.434C25.3379 127.094 25.473 126.768 25.7134 126.527C25.9538 126.287 26.2799 126.152 26.6199 126.152H50.9769C51.1452 126.152 51.3119 126.185 51.4673 126.25C51.6228 126.314 51.7641 126.408 51.883 126.528C52.002 126.647 52.0964 126.788 52.1607 126.943C52.225 127.099 52.258 127.266 52.2579 127.434V182.629C52.2576 182.969 52.1226 183.295 51.8825 183.535C51.6423 183.775 51.3166 183.91 50.9769 183.911V183.911Z"></path>
    <path id="Vector_48" stroke="#313553" stroke-linecap="round" stroke-linejoin="round" stroke-width=".772" d="M31.7661 124.187H44.6261"></path>
    <path id="Vector_49" stroke="#313553" stroke-linecap="round" stroke-linejoin="round" stroke-width=".772" d="M46.904 114.022H38.198"></path>
    <path id="Vector_50" stroke="#313553" stroke-linecap="round" stroke-linejoin="round" stroke-width=".772" d="M35.445 113.625C35.4452 114.347 35.2313 115.053 34.8302 115.653C34.4292 116.254 33.8591 116.722 33.192 116.998C32.525 117.274 31.791 117.347 31.0828 117.206C30.3747 117.065 29.7242 116.717 29.2137 116.207C28.7032 115.696 28.3557 115.045 28.215 114.337C28.0743 113.629 28.1468 112.895 28.4233 112.228C28.6999 111.561 29.168 110.991 29.7685 110.59C30.3691 110.189 31.075 109.976 31.797 109.976C32.7646 109.976 33.6925 110.361 34.3766 111.045C35.0607 111.729 35.445 112.657 35.445 113.625V113.625Z"></path>
    <path id="Vector_51" stroke="#313553" stroke-linecap="round" stroke-linejoin="round" stroke-width=".772" d="M105.461 82.782H81.0699C80.3932 82.7821 79.7232 82.6488 79.098 82.3898C78.4729 82.1308 77.9049 81.7511 77.4266 81.2724C76.9483 80.7938 76.5691 80.2255 76.3105 79.6002C76.052 78.9748 75.9193 78.3046 75.9199 77.6279V23.328C75.9194 22.6513 76.0522 21.9812 76.3108 21.3559C76.5694 20.7306 76.9486 20.1624 77.4269 19.6838C77.9052 19.2051 78.4731 18.8254 79.0982 18.5664C79.7233 18.3073 80.3933 18.174 81.0699 18.174H105.461C106.138 18.1734 106.808 18.3064 107.434 18.5652C108.059 18.824 108.628 19.2037 109.107 19.6823C109.585 20.161 109.965 20.7294 110.224 21.355C110.483 21.9805 110.615 22.651 110.615 23.328V77.6279C110.616 78.305 110.483 78.9755 110.224 79.6011C109.965 80.2267 109.586 80.7951 109.107 81.2738C108.628 81.7526 108.06 82.1322 107.434 82.391C106.808 82.6497 106.138 82.7826 105.461 82.782V82.782Z"></path>
    <path id="Vector_52" stroke="#313553" stroke-linecap="round" stroke-linejoin="round" stroke-width=".772" d="M105.446 79.7829H81.0891C80.7493 79.7819 80.4238 79.6463 80.1838 79.4059C79.9437 79.1654 79.8086 78.8397 79.8081 78.4999V23.2999C79.8084 22.9602 79.9434 22.6344 80.1835 22.3941C80.4237 22.1537 80.7494 22.0185 81.0891 22.0179H105.446C105.786 22.0182 106.112 22.1534 106.352 22.3937C106.593 22.6341 106.728 22.96 106.728 23.2999V78.4999C106.728 78.8399 106.592 79.1658 106.352 79.4062C106.112 79.6467 105.786 79.7822 105.446 79.7829V79.7829Z"></path>
    <path id="Vector_53" stroke="#313553" stroke-linecap="round" stroke-linejoin="round" stroke-width=".772" d="M86.2361 20.059H99.0951"></path>
    <path id="Vector_54" stroke="#313553" stroke-linecap="round" stroke-linejoin="round" stroke-width=".772" d="M101.373 9.89001H92.667"></path>
    <path id="Vector_55" stroke="#313553" stroke-linecap="round" stroke-linejoin="round" stroke-width=".772" d="M89.915 9.50002C89.9148 10.222 89.7006 10.9278 89.2993 11.528C88.8981 12.1283 88.3278 12.5961 87.6607 12.8723C86.9937 13.1485 86.2597 13.2207 85.5515 13.0798C84.8434 12.9389 84.1929 12.5912 83.6824 12.0807C83.1718 11.5701 82.8241 10.9197 82.6832 10.2115C82.5423 9.50341 82.6145 8.7694 82.8908 8.10231C83.167 7.43521 83.6348 6.865 84.235 6.46374C84.8353 6.06249 85.541 5.84822 86.263 5.84802C86.7427 5.84789 87.2176 5.94226 87.6607 6.12575C88.1039 6.30923 88.5065 6.57823 88.8457 6.91738C89.1848 7.25652 89.4538 7.65917 89.6373 8.10231C89.8208 8.54545 89.9152 9.0204 89.915 9.50002V9.50002Z"></path>
    <path id="Vector_56" stroke="#313553" stroke-linecap="round" stroke-linejoin="round" stroke-width=".772" d="M175.149 94.8001H150.758C149.391 94.7998 148.08 94.2567 147.114 93.2902C146.147 92.3237 145.604 91.0129 145.604 89.6461V35.3391C145.605 33.9723 146.148 32.6617 147.114 31.6952C148.081 30.7288 149.391 30.1856 150.758 30.1851H175.149C175.826 30.1849 176.496 30.3181 177.122 30.5771C177.747 30.8361 178.315 31.2157 178.794 31.6943C179.272 32.173 179.652 32.7412 179.911 33.3666C180.17 33.9919 180.303 34.6622 180.303 35.3391V89.6461C180.303 90.323 180.17 90.9933 179.911 91.6187C179.652 92.2442 179.273 92.8124 178.794 93.2911C178.315 93.7697 177.747 94.1494 177.122 94.4083C176.496 94.6672 175.826 94.8003 175.149 94.8001V94.8001Z"></path>
    <path id="Vector_57" stroke="#313553" stroke-linecap="round" stroke-linejoin="round" stroke-width=".772" d="M175.134 91.8H150.777C150.437 91.7995 150.112 91.6642 149.872 91.4239C149.631 91.1835 149.496 90.8578 149.496 90.518V35.318C149.497 34.9783 149.632 34.6527 149.872 34.4124C150.112 34.1722 150.437 34.0368 150.777 34.036H175.134C175.474 34.0368 175.799 34.1721 176.04 34.4124C176.28 34.6526 176.415 34.9782 176.416 35.318V90.518C176.416 90.8579 176.28 91.1836 176.04 91.4239C175.8 91.6642 175.474 91.7995 175.134 91.8V91.8Z"></path>
    <path id="Vector_58" stroke="#313553" stroke-linecap="round" stroke-linejoin="round" stroke-width=".772" d="M155.924 32.073H168.783"></path>
    <path id="Vector_59" stroke="#313553" stroke-linecap="round" stroke-linejoin="round" stroke-width=".772" d="M171.057 21.9041H162.351"></path>
    <path id="Vector_60" stroke="#313553" stroke-linecap="round" stroke-linejoin="round" stroke-width=".772" d="M155.951 25.163C157.968 25.163 159.603 23.528 159.603 21.511C159.603 19.4941 157.968 17.859 155.951 17.859C153.934 17.859 152.299 19.4941 152.299 21.511C152.299 23.528 153.934 25.163 155.951 25.163Z"></path>
    <path id="Vector_61" stroke="#313553" stroke-linecap="round" stroke-linejoin="round" stroke-width=".772" d="M63.9331 148.224C63.9327 148.589 63.8243 148.945 63.6214 149.248C63.4186 149.551 63.1306 149.787 62.7936 149.926C62.4567 150.065 62.0861 150.102 61.7285 150.03C61.371 149.959 61.0426 149.783 60.7849 149.526C60.5271 149.268 60.3516 148.939 60.2805 148.582C60.2094 148.224 60.2459 147.853 60.3854 147.517C60.5249 147.18 60.7611 146.892 61.0641 146.689C61.3672 146.486 61.7235 146.378 62.0881 146.378C62.3305 146.378 62.5706 146.426 62.7946 146.518C63.0185 146.611 63.222 146.747 63.3934 146.918C63.5647 147.09 63.7006 147.293 63.7932 147.517C63.8858 147.741 63.9334 147.982 63.9331 148.224V148.224Z"></path>
    <path id="Vector_62" stroke="#313553" stroke-linecap="round" stroke-linejoin="round" stroke-width=".772" d="M63.9331 164.241C63.9337 164.606 63.8261 164.963 63.6239 165.266C63.4217 165.57 63.1339 165.807 62.7971 165.947C62.4603 166.087 62.0895 166.124 61.7316 166.053C61.3737 165.982 61.0449 165.807 60.7866 165.549C60.5284 165.292 60.3524 164.963 60.2809 164.606C60.2094 164.248 60.2456 163.877 60.3849 163.54C60.5242 163.203 60.7604 162.914 61.0636 162.712C61.3668 162.509 61.7233 162.4 62.0881 162.4C62.3302 162.4 62.5699 162.447 62.7937 162.539C63.0175 162.632 63.2208 162.767 63.3922 162.938C63.5635 163.109 63.6995 163.312 63.7923 163.536C63.8851 163.759 63.933 163.999 63.9331 164.241V164.241Z"></path>
    <path id="Vector_63" stroke="#313553" stroke-linecap="round" stroke-linejoin="round" stroke-width=".772" d="M64.126 164.241H113.546V155.03"></path>
    <path id="Vector_64" stroke="#313553" stroke-linecap="round" stroke-linejoin="round" stroke-width=".772" d="M46.07 41.061C47.0873 41.061 47.912 40.2363 47.912 39.219C47.912 38.2016 47.0873 37.377 46.07 37.377C45.0527 37.377 44.228 38.2016 44.228 39.219C44.228 40.2363 45.0527 41.061 46.07 41.061Z"></path>
    <path id="Vector_65" stroke="#313553" stroke-linecap="round" stroke-linejoin="round" stroke-width=".772" d="M47.9109 39.219H62.0879V97.9H101.705"></path>
    <path id="Vector_66" stroke="#313553" stroke-linecap="round" stroke-linejoin="round" stroke-width=".772" d="M66.9941 123.983H63.9331V104.162H94.8761H94.8801"></path>
    <path id="Vector_67" stroke="#313553" stroke-linecap="round" stroke-linejoin="round" stroke-width=".772" d="M142.6 38.358C142.6 38.7223 142.492 39.0786 142.29 39.3816C142.088 39.6847 141.8 39.9209 141.464 40.0605C141.127 40.2 140.757 40.2367 140.399 40.1657C140.042 40.0947 139.714 39.9194 139.456 39.6618C139.198 39.4042 139.023 39.076 138.951 38.7187C138.88 38.3614 138.917 37.9909 139.056 37.6543C139.196 37.3177 139.432 37.0299 139.735 36.8275C140.037 36.625 140.394 36.517 140.758 36.517C141.246 36.5172 141.715 36.7113 142.06 37.0564C142.405 37.4016 142.599 37.8697 142.6 38.358V38.358Z"></path>
    <path id="Vector_68" stroke="#313553" stroke-linecap="round" stroke-linejoin="round" stroke-width=".772" d="M116.731 31.3901C117.748 31.3901 118.573 30.5654 118.573 29.5481C118.573 28.5307 117.748 27.7061 116.731 27.7061C115.714 27.7061 114.889 28.5307 114.889 29.5481C114.889 30.5654 115.714 31.3901 116.731 31.3901Z"></path>
    <path id="Vector_69" stroke="#313553" stroke-linecap="round" stroke-linejoin="round" stroke-width=".772" d="M140.759 56.222C141.776 56.222 142.601 55.3973 142.601 54.38C142.601 53.3627 141.776 52.538 140.759 52.538C139.742 52.538 138.917 53.3627 138.917 54.38C138.917 55.3973 139.742 56.222 140.759 56.222Z"></path>
    <path id="Vector_70" stroke="#313553" stroke-linecap="round" stroke-linejoin="round" stroke-width=".772" d="M140.759 64.233C141.776 64.233 142.601 63.4083 142.601 62.3909C142.601 61.3736 141.776 60.549 140.759 60.549C139.742 60.549 138.917 61.3736 138.917 62.3909C138.917 63.4083 139.742 64.233 140.759 64.233Z"></path>
    <path id="Vector_71" stroke="#313553" stroke-linecap="round" stroke-linejoin="round" stroke-width=".772" d="M142.6 70.4001C142.599 70.7642 142.491 71.1201 142.288 71.4226C142.085 71.7251 141.797 71.9607 141.461 72.0997C141.124 72.2387 140.754 72.2747 140.397 72.2033C140.04 72.1319 139.712 71.9562 139.454 71.6985C139.197 71.4408 139.022 71.1125 138.951 70.7553C138.88 70.3981 138.917 70.0279 139.057 69.6915C139.196 69.3551 139.432 69.0675 139.735 68.8653C140.038 68.663 140.394 68.5551 140.758 68.5551C141 68.5551 141.24 68.6028 141.464 68.6956C141.687 68.7883 141.89 68.9243 142.062 69.0956C142.233 69.267 142.368 69.4704 142.461 69.6942C142.553 69.9181 142.6 70.1579 142.6 70.4001V70.4001Z"></path>
    <path id="Vector_72" stroke="#313553" stroke-linecap="round" stroke-linejoin="round" stroke-width=".772" d="M116.731 31.39V54.38H125.417H138.918"></path>
    <path id="Vector_73" stroke="#313553" stroke-linecap="round" stroke-linejoin="round" stroke-width=".772" d="M138.918 62.391H132.764V94.53"></path>
    <path id="Vector_74" stroke="#313553" stroke-linecap="round" stroke-linejoin="round" stroke-width=".772" d="M138.918 70.401H136.501V94.53"></path>
    <path id="Vector_75" stroke="#313553" stroke-linecap="round" stroke-linejoin="round" stroke-width=".772" d="M138.918 38.358H125.417V54.38V91.395"></path>
    <path id="Vector_76" stroke="#313553" stroke-linecap="round" stroke-linejoin="round" stroke-width=".772" d="M22.779 60.874C28.4272 60.874 33.006 56.2953 33.006 50.647C33.006 44.9988 28.4272 40.42 22.779 40.42C17.1308 40.42 12.552 44.9988 12.552 50.647C12.552 56.2953 17.1308 60.874 22.779 60.874Z"></path>
    <path id="Vector_77" stroke="#313553" stroke-linecap="round" stroke-linejoin="round" stroke-width=".772" d="M12.822 66.88H31.535"></path>
    <path id="Vector_78" stroke="#313553" stroke-linecap="round" stroke-linejoin="round" stroke-width=".772" d="M12.822 72.8879H31.535"></path>
    <path id="Vector_79" stroke="#313553" stroke-linecap="round" stroke-linejoin="round" stroke-width=".772" d="M12.822 78.895H31.535"></path>
    <path id="Vector_80" stroke="#313553" stroke-linecap="round" stroke-linejoin="round" stroke-width=".772" d="M47.4139 131.098H28.9829V139.421H47.4139V131.098Z"></path>
    <path id="Vector_81" stroke="#313553" stroke-linecap="round" stroke-linejoin="round" stroke-width=".772" d="M47.4139 143.112H28.9829V151.435H47.4139V143.112Z"></path>
    <path id="Vector_82" stroke="#313553" stroke-linecap="round" stroke-linejoin="round" stroke-width=".772" d="M47.4139 155.126H28.9829V178.116H47.4139V155.126Z"></path>
    <path id="Vector_83" stroke="#313553" stroke-linecap="round" stroke-linejoin="round" stroke-width=".772" d="M168.335 44.6C168.335 45.6642 168.02 46.7045 167.429 47.5895C166.838 48.4744 165.998 49.1643 165.015 49.5718C164.032 49.9794 162.951 50.0863 161.907 49.879C160.863 49.6717 159.904 49.1596 159.152 48.4073C158.399 47.6551 157.886 46.6966 157.679 45.653C157.471 44.6094 157.577 43.5276 157.984 42.5444C158.391 41.5612 159.08 40.7207 159.965 40.1294C160.85 39.538 161.89 39.2222 162.954 39.222C164.381 39.2218 165.749 39.7882 166.758 40.7967C167.767 41.8053 168.334 43.1734 168.335 44.6V44.6Z"></path>
    <path id="Vector_84" stroke="#313553" stroke-linecap="round" stroke-linejoin="round" stroke-width=".772" d="M155.375 55.422H170.536"></path>
    <path id="Vector_85" stroke="#313553" stroke-linecap="round" stroke-linejoin="round" stroke-width=".772" d="M155.375 59.426H170.536"></path>
    <path id="Vector_86" stroke="#313553" stroke-linecap="round" stroke-linejoin="round" stroke-width=".772" d="M168.335 69.83C168.335 70.8939 168.019 71.9339 167.427 72.8183C166.836 73.7028 165.996 74.392 165.013 74.799C164.03 75.2059 162.948 75.3122 161.905 75.1045C160.861 74.8967 159.903 74.3843 159.15 73.6319C158.398 72.8795 157.886 71.921 157.678 70.8775C157.471 69.834 157.577 68.7524 157.984 67.7694C158.391 66.7864 159.081 65.9462 159.965 65.355C160.85 64.7638 161.89 64.4482 162.954 64.448C163.661 64.4479 164.361 64.587 165.014 64.8574C165.667 65.1279 166.26 65.5243 166.76 66.0241C167.259 66.5239 167.656 67.1173 167.926 67.7703C168.196 68.4233 168.335 69.1232 168.335 69.83Z"></path>
    <path id="Vector_87" stroke="#313553" stroke-linecap="round" stroke-linejoin="round" stroke-width=".772" d="M155.375 80.651H170.536"></path>
    <path id="Vector_88" stroke="#313553" stroke-linecap="round" stroke-linejoin="round" stroke-width=".772" d="M155.375 84.6589H170.536"></path>
    <path id="Vector_89" stroke="#313553" stroke-linecap="round" stroke-linejoin="round" stroke-width=".772" d="M63.9331 148.224H102.778"></path>
  </g></g></svg>