<?xml version="1.0" encoding="UTF-8" standalone="no"?>
<svg
   xmlns:dc="http://purl.org/dc/elements/1.1/"
   xmlns:cc="http://creativecommons.org/ns#"
   xmlns:rdf="http://www.w3.org/1999/02/22-rdf-syntax-ns#"
   xmlns:svg="http://www.w3.org/2000/svg"
   xmlns="http://www.w3.org/2000/svg"
   xmlns:sodipodi="http://sodipodi.sourceforge.net/DTD/sodipodi-0.dtd"
   xmlns:inkscape="http://www.inkscape.org/namespaces/inkscape"
   version="1.1"
   id="svg2"
   xml:space="preserve"
   width="377.95334"
   height="151.18134"
   viewBox="0 0 377.95334 151.18134"
   sodipodi:docname="flinto.ai"><metadata
     id="metadata8"><rdf:RDF><cc:Work
         rdf:about=""><dc:format>image/svg+xml</dc:format><dc:type
           rdf:resource="http://purl.org/dc/dcmitype/StillImage" /></cc:Work></rdf:RDF></metadata><defs
     id="defs6"><clipPath
       clipPathUnits="userSpaceOnUse"
       id="clipPath18"><path
         d="M 0,113.386 H 283.465 V 0 H 0 Z"
         id="path16" /></clipPath></defs><sodipodi:namedview
     pagecolor="#ffffff"
     bordercolor="#666666"
     borderopacity="1"
     objecttolerance="10"
     gridtolerance="10"
     guidetolerance="10"
     inkscape:pageopacity="0"
     inkscape:pageshadow="2"
     inkscape:window-width="640"
     inkscape:window-height="480"
     id="namedview4" /><g
     id="g10"
     inkscape:groupmode="layer"
     inkscape:label="flinto"
     transform="matrix(1.3333333,0,0,-1.3333333,0,151.18133)"><g
       id="g12"><g
         id="g14"
         clip-path="url(#clipPath18)"><g
           id="g20"
           transform="translate(59.3794,27.1886)"><path
             d="m 0,0 h -21.401 c -4.431,0 -8.022,3.592 -8.022,8.021 v 42.966 c 0,4.43 3.591,8.022 8.022,8.022 H 0 Z"
             style="fill:#0e4c77;fill-opacity:1;fill-rule:nonzero;stroke:none"
             id="path22" /></g><g
           id="g24"
           transform="translate(59.3794,56.6114)"><path
             d="m 0,0 h 29.586 v 21.564 c 0,4.431 -3.592,8.022 -8.022,8.022 H 0 Z"
             style="fill:#0f3a5c;fill-opacity:1;fill-rule:nonzero;stroke:none"
             id="path26" /></g><g
           id="g28"
           transform="translate(59.3794,27.2013)"><path
             d="m 0,0 h 21.564 c 4.43,0 8.022,3.591 8.022,8.021 V 29.492 H 0 Z"
             style="fill:#145c91;fill-opacity:1;fill-rule:nonzero;stroke:none"
             id="path30" /></g><g
           id="g32"
           transform="translate(45.124,49.8351)"><path
             d="m 0,0 c -0.921,0 -1.843,0.013 -2.764,-0.006 -0.53,-0.01 -0.738,0.223 -0.725,0.74 0.021,0.861 0.025,0.614 0.016,1.473 -0.005,0.497 0.218,0.697 0.708,0.694 1.843,-0.01 32.36,-0.01 34.202,0 0.49,0.003 0.714,-0.196 0.709,-0.693 C 32.138,1.348 32.141,1.595 32.163,0.735 32.176,0.218 31.969,-0.016 31.438,-0.006 30.517,0.013 0.921,0 0,0"
             style="fill:#f15751;fill-opacity:1;fill-rule:nonzero;stroke:none"
             id="path34" /></g><g
           id="g36"
           transform="translate(61.4629,51.2833)"><path
             d="m 0,0 c 0,-0.922 -0.014,-1.844 0.005,-2.765 0.011,-0.53 -0.223,-0.737 -0.74,-0.724 -0.86,0.021 -1.721,0.025 -2.58,0.016 -0.498,-0.005 -0.697,0.217 -0.694,0.708 0.01,1.843 0.01,3.686 0,5.529 -0.003,0.489 0.196,0.713 0.693,0.708 0.86,-0.009 1.72,-0.005 2.58,0.016 C -0.219,3.502 0.016,3.295 0.005,2.765 -0.014,1.843 0,0.921 0,0"
             style="fill:#ffffff;fill-opacity:1;fill-rule:nonzero;stroke:none"
             id="path38" /></g><g
           id="g40"
           transform="translate(59.4395,60.6549)"><path
             d="M 0,0 C -2.652,-0.003 -4.891,2.253 -4.877,4.915 -4.864,7.557 -2.652,9.777 -0.02,9.792 2.678,9.808 4.934,7.561 4.92,4.873 4.906,2.201 2.687,0.003 0,0 m 15.811,-18.587 c -0.008,0.469 -0.124,0.978 -0.336,1.396 -2.702,5.326 -5.426,10.642 -8.158,15.952 -0.219,0.425 -0.233,0.723 0.059,1.147 2.306,3.344 2.009,7.806 -0.678,10.854 -1.255,1.424 -2.825,2.325 -4.676,2.806 0,1.156 -0.012,2.281 0.006,3.406 0.009,0.526 -0.208,0.741 -0.733,0.729 -0.778,-0.018 -1.558,0.004 -2.337,0.004 -0.859,10e-4 -0.914,-0.054 -0.915,-0.905 -10e-4,-1.08 0,-2.159 0,-3.222 -0.154,-0.041 -0.233,-0.061 -0.312,-0.084 -6.123,-1.728 -8.491,-8.804 -4.918,-13.783 0.236,-0.329 0.124,-0.546 -0.019,-0.826 -2.351,-4.611 -4.623,-9.263 -7.078,-13.818 -1.076,-1.998 -1.663,-3.985 -1.471,-6.246 0.11,-1.303 0.011,-2.622 0.031,-3.933 0.003,-0.168 0.155,-0.334 0.237,-0.501 0.159,0.098 0.338,0.175 0.471,0.3 0.098,0.093 0.135,0.249 0.2,0.377 3.563,6.999 7.126,13.999 10.691,20.997 0.125,0.247 0.267,0.484 0.406,0.735 2.525,-1.051 4.991,-1.11 7.518,-0.024 0.93,-1.812 1.83,-3.554 2.72,-5.303 2.811,-5.523 5.615,-11.051 8.438,-16.569 0.112,-0.219 0.381,-0.358 0.577,-0.533 0.098,0.237 0.277,0.474 0.279,0.713 0.022,2.11 0.033,4.22 -0.002,6.331"
             style="fill:#ffffff;fill-opacity:1;fill-rule:nonzero;stroke:none"
             id="path42" /></g><g
           id="g44"
           transform="translate(188.5537,52.8702)"><path
             d="m 0,0 v 0.655 17.891 c 0,0.905 0.084,0.99 0.973,0.99 1.352,10e-4 2.706,-0.013 4.058,0.006 0.562,0.009 0.826,-0.183 0.826,-0.779 C 5.849,8.803 5.85,-1.156 5.856,-11.116 c 0,-0.543 -0.208,-0.812 -0.762,-0.774 -0.041,0.003 -0.083,0.006 -0.123,-10e-4 -1.435,-0.226 -2.43,0.379 -3.412,1.43 -5.573,5.957 -11.215,11.849 -16.832,17.764 -0.126,0.133 -0.224,0.291 -0.335,0.437 -0.064,-0.021 -0.128,-0.043 -0.192,-0.065 v -0.684 -17.89 c 0,-0.907 -0.082,-0.99 -0.971,-0.991 -1.354,-10e-4 -2.707,0.014 -4.06,-0.006 -0.562,-0.008 -0.826,0.183 -0.825,0.78 0.008,9.959 0.008,19.919 10e-4,29.878 -10e-4,0.543 0.207,0.812 0.762,0.775 0.04,-0.003 0.082,-0.006 0.122,0 1.435,0.227 2.43,-0.379 3.413,-1.43 C -11.786,12.15 -6.144,6.259 -0.526,0.343 -0.401,0.211 -0.303,0.052 -0.192,-0.095 -0.128,-0.063 -0.064,-0.032 0,0"
             style="fill:#0e4c77;fill-opacity:1;fill-rule:nonzero;stroke:none"
             id="path46" /></g><g
           id="g48"
           transform="translate(109.8022,67.0499)"><path
             d="m 0,0 v -8.416 h 0.737 c 3.382,0 6.764,0.001 10.146,-10e-4 0.77,0 0.891,-0.121 0.893,-0.883 0.003,-1.209 0.003,-2.418 0,-3.627 -0.002,-0.719 -0.132,-0.844 -0.869,-0.844 -3.382,-0.002 -6.764,-10e-4 -10.146,-10e-4 h -0.794 v -0.78 c 0,-3.524 0.001,-7.048 0,-10.572 0,-0.851 -0.095,-0.944 -0.954,-0.945 -1.291,-0.001 -2.583,-0.001 -3.874,0 -0.951,0 -1.023,0.069 -1.023,1 V 4.372 c 0,0.062 0.005,0.124 0,0.185 -0.047,0.575 0.212,0.807 0.793,0.806 6.006,-0.01 12.011,-0.006 18.016,-0.008 0.682,0 0.817,-0.14 0.819,-0.833 C 13.748,3.313 13.747,2.104 13.745,0.896 13.743,0.12 13.627,0.001 12.864,0 8.847,-0.001 4.83,0 0.812,0 Z"
             style="fill:#0e4c77;fill-opacity:1;fill-rule:nonzero;stroke:none"
             id="path50" /></g><g
           id="g52"
           transform="translate(206.2686,67.0499)"><path
             d="m 0,0 h -3.515 c -1.188,0 -2.378,0.015 -3.566,-0.006 -0.584,-0.011 -0.809,0.232 -0.799,0.807 0.022,1.25 0.022,2.501 0,3.75 -0.01,0.574 0.21,0.813 0.795,0.812 C -0.401,5.353 6.282,5.354 12.965,5.361 13.52,5.362 13.736,5.128 13.729,4.583 13.712,3.333 13.727,2.083 13.723,0.833 13.721,0.14 13.587,0.002 12.902,0.001 10.587,-0.002 8.271,0 5.851,0 v -0.795 -24.223 c 0,-0.991 -0.06,-1.051 -1.034,-1.051 -1.312,0 -2.624,-0.002 -3.936,10e-4 C 0.117,-26.067 0,-25.949 0,-25.173 c -0.001,8.095 0,16.19 0,24.284 z"
             style="fill:#0e4c77;fill-opacity:1;fill-rule:nonzero;stroke:none"
             id="path54" /></g><g
           id="g56"
           transform="translate(135.3569,46.337)"><path
             d="m 0,0 h 5.133 c 1.947,0 3.894,0.002 5.841,-0.001 0.693,-0.001 0.832,-0.137 0.834,-0.817 0.005,-1.25 -0.014,-2.5 0.008,-3.749 0.01,-0.585 -0.237,-0.797 -0.811,-0.795 -5.348,0.009 -10.697,0.009 -16.046,-0.001 -0.569,-10e-4 -0.816,0.201 -0.816,0.79 0.008,9.956 0.008,19.912 0,29.868 0,0.596 0.264,0.789 0.825,0.781 1.373,-0.019 2.746,-0.005 4.119,-0.007 C -0.106,26.068 0,25.961 0,25.144 0,17.051 0,8.959 0,0.867 Z"
             style="fill:#0e4c77;fill-opacity:1;fill-rule:nonzero;stroke:none"
             id="path58" /></g><g
           id="g60"
           transform="translate(158.9766,56.6612)"><path
             d="m 0,0 c 0,-4.897 0,-9.796 -0.001,-14.693 0,-0.905 -0.081,-0.987 -0.974,-0.988 -1.353,-0.001 -2.706,0.014 -4.059,-0.007 -0.564,-0.007 -0.823,0.188 -0.823,0.783 0.008,9.959 0.008,19.918 0,29.878 0,0.597 0.266,0.786 0.827,0.779 1.393,-0.02 2.788,-0.004 4.181,-0.007 0.721,-0.002 0.848,-0.131 0.848,-0.868 C 0,9.918 0,4.959 0,0"
             style="fill:#0e4c77;fill-opacity:1;fill-rule:nonzero;stroke:none"
             id="path62" /></g><g
           id="g64"
           transform="translate(247.6836,56.6715)"><path
             d="m 0,0 c -0.112,1.035 -0.155,2.083 -0.349,3.103 -0.656,3.457 -2.426,6.053 -5.885,7.228 -1.815,0.616 -3.692,0.685 -5.582,0.417 -3.428,-0.485 -5.906,-2.259 -7.127,-5.531 -1.237,-3.311 -1.236,-6.699 -0.128,-10.047 1.003,-3.033 3.122,-4.931 6.23,-5.692 1.631,-0.399 3.289,-0.428 4.941,-0.164 2.977,0.476 5.257,1.964 6.611,4.723 C -0.369,-4.086 -0.055,-2.081 0,0 m -25.686,-0.639 c 0.095,4.431 0.886,7.974 3.188,11.053 2.397,3.205 5.666,4.939 9.56,5.563 2.998,0.481 5.959,0.287 8.841,-0.707 C -0.005,13.859 2.908,11.148 4.445,7.108 6.36,2.072 6.324,-3.007 4.066,-7.924 c -2.173,-4.732 -6.077,-7.241 -11.156,-8.024 -3.028,-0.468 -6.015,-0.268 -8.891,0.793 -5.047,1.862 -8.006,5.578 -9.179,10.747 -0.329,1.448 -0.416,2.95 -0.526,3.769"
             style="fill:#0e4c77;fill-opacity:1;fill-rule:nonzero;stroke:none"
             id="path66" /></g></g></g></g></svg>
