<svg xmlns="http://www.w3.org/2000/svg" fill="none" viewBox="0 0 999 999">
  
<g transform="matrix(4.995,0,0,4.995,0,0)"><g id="design-thinking-london-200-ico_BG4xe4SLvQqBzhKF">
    <path id="Vector" fill="#a84646" d="M150.715 195.251H112.026C114.605 190.603 117.356 184.658 118.305 180.512C118.913 178.196 118.584 175.733 117.389 173.658L121.946 166.563C124.081 165.754 118.488 162.182 118.488 162.182L126.228 145.882C127.895 144.522 129.468 143.052 130.938 141.482C131.819 140.569 132.444 139.44 132.748 138.208C132.901 137.63 132.943 137.029 132.872 136.435L132.909 136.427C132.909 136.427 152.531 137.171 160.191 145.164C172.597 158.109 168.568 195.247 168.568 195.247H150.715V195.251Z"></path>
    <path id="Vector_2" fill="#313553" d="M167.436 52.82L133.436 76.688L141.736 31.022L167.436 52.82ZM138.847 68.23L161.205 52.53L144.3 38.2L138.847 68.23Z"></path>
    <path id="Vector_3" fill="#FFE8BB" d="M95.081 126.922C96.147 125.922 98.181 125.109 100.759 126.622C103.543 128.259 104.572 132.233 107.708 132.431C110.844 132.629 115.455 130.05 120.059 126.922C122.015 125.596 124.466 123.805 126.825 122.142C127.749 121.516 128.602 120.79 129.367 119.977C130.092 119.07 130.751 118.113 131.341 117.113C132.462 115.53 134.206 115.384 134.704 116.552C134.83 117.034 134.851 117.538 134.767 118.029C134.683 118.521 134.496 118.989 134.217 119.402C133.327 121.091 132.269 122.687 131.059 124.164L131.213 124.292C131.699 124.905 132.017 125.634 132.135 126.408C132.253 127.181 132.168 127.972 131.887 128.702L131.993 128.739C132.45 129.584 132.672 130.537 132.635 131.497C132.598 132.457 132.304 133.389 131.784 134.197C132.334 134.836 132.709 135.608 132.872 136.435C132.943 137.029 132.901 137.63 132.748 138.208C132.444 139.44 131.819 140.569 130.938 141.482C129.468 143.052 127.895 144.522 126.228 145.882L118.488 162.182L116.854 165.625L116.773 165.838C110.25 163.332 100.773 156.338 100.773 156.338L103.582 151.693L106.992 146.06C104.871 144.188 104.212 143.917 103.267 142.078C102.306 140.188 101.628 138.166 101.256 136.078C100.743 133.712 99.025 131.983 96.524 130.595C95.8026 130.242 95.1691 129.733 94.67 129.104C94.4489 128.817 94.3442 128.458 94.3768 128.097C94.4095 127.736 94.577 127.401 94.846 127.159C94.92 127.076 95 127 95.081 126.922Z"></path>
    <path id="Vector_4" fill="#313553" d="M130.4 50.2931L128.517 52.3191L126.667 50.6011L124.821 48.8831L126.704 46.8571L130.4 50.2931Z"></path>
    <path id="Vector_5" fill="#313553" d="M126.444 115.01C126.433 115.009 126.422 115.006 126.411 115.003C126.422 115.006 126.433 115.009 126.444 115.01V115.01ZM126.458 115.01C126.828 115.12 129.323 115.885 129.279 117.021C129.235 118.248 128.385 118.248 128.385 118.248C128.554 118.402 128.684 118.593 128.765 118.806C128.847 119.019 128.877 119.248 128.854 119.475L129.367 119.975C128.602 120.788 127.749 121.514 126.825 122.14C124.466 123.803 122.015 125.594 120.059 126.92C115.459 130.048 110.847 132.631 107.708 132.429C104.569 132.227 103.543 128.257 100.759 126.62C98.177 125.103 96.147 125.92 95.081 126.92C94.25 127.356 93.528 126.664 93.147 125.72C92.9654 125.264 92.8698 124.779 92.865 124.288C92.865 124.288 91.365 121.46 89.136 118.171C88.5027 117.155 87.6941 116.259 86.748 115.526C86.737 115.519 86.726 115.508 86.715 115.501C86.3792 115.209 85.9584 115.034 85.515 115.001C82.2612 110.377 80.7757 104.738 81.329 99.111C81.329 99.074 81.329 99.052 81.329 99.052C81.4398 97.7095 81.6592 96.3781 81.985 95.071C81.263 98.822 86.197 100.836 87.34 101.928C88.534 103.067 86.94 105.364 87.34 108.737C87.4899 110.623 88.0643 112.451 89.0202 114.084C89.9761 115.716 91.2887 117.112 92.86 118.166C96.487 120.466 99.871 119.041 103.721 119.093C102.977 115.942 103.999 112.865 107.999 110.862C110.937 109.241 114.208 108.317 117.56 108.162C118.835 108.099 120.094 108.463 121.139 109.197C122.183 109.931 122.953 110.992 123.325 112.213C123.325 112.213 124.215 108.752 123.97 107.752C123.391 105.368 122.553 103.054 121.47 100.852C123.213 102.979 124.594 105.377 125.558 107.952C125.558 107.952 127.305 109.227 127.305 110.363C127.308 110.669 127.191 110.964 126.979 111.185C126.767 111.406 126.476 111.534 126.17 111.542C126.17 111.542 127.97 112.582 127.778 113.952C127.78 114.115 127.745 114.277 127.676 114.424C127.606 114.572 127.504 114.702 127.377 114.804C127.249 114.907 127.101 114.979 126.941 115.015C126.782 115.051 126.617 115.051 126.458 115.014V115.01ZM120.722 118.559C122.869 118.332 122.88 115.559 121.744 112.82C119.118 107.644 114.33 110.431 110.561 111.849C106.792 113.267 104.605 114.882 106.411 119.08C107.111 120.68 109.557 123.398 112.081 122.343C114.605 121.288 113.675 118.834 115.881 118.058C118.444 117.153 118.766 118.772 120.722 118.563V118.559Z"></path>
    <path id="Vector_6" fill="#FFE8BB" d="M126.667 50.6011L128.517 52.3191L112.462 69.5931L112.33 67.6921L110.612 67.8751L110.568 66.0551L108.766 66.1571L124.821 48.8831L126.667 50.6011Z"></path>
    <path id="Vector_7" fill="#FFE8BB" d="M108.7 98.212C109.718 98.886 110.11 97.212 111.44 95.67C112.568 94.3046 114.099 93.3303 115.813 92.886C115.005 92.6746 114.159 92.6522 113.341 92.8206C112.522 92.989 111.754 93.3436 111.095 93.857C108.839 95.622 107.686 97.542 108.7 98.212ZM92.6 103.139C95.856 99.539 94.853 98.626 99.05 97.692C101.039 97.249 102.332 98.424 102.219 97.208C102.106 95.992 99.871 95.373 97.248 96.531C94.667 97.673 92.656 102.974 92.6 103.139ZM123.977 107.758C124.222 108.758 123.332 112.219 123.332 112.219C122.96 110.998 122.19 109.936 121.146 109.203C120.101 108.469 118.842 108.105 117.567 108.168C114.215 108.323 110.944 109.247 108.006 110.868C104.006 112.868 102.984 115.948 103.728 119.099C99.878 119.047 96.494 120.472 92.867 118.172C91.2957 117.118 89.9831 115.722 89.0272 114.09C88.0713 112.457 87.4969 110.629 87.347 108.743C86.947 105.37 88.541 103.073 87.347 101.934C86.204 100.842 81.27 98.828 81.992 95.077C82.2455 94.0186 82.5936 92.9851 83.032 91.989C86.805 83.615 96.922 81.326 102.226 81.33C106.995 81.33 114.164 85.711 116.918 89.846C118.479 92.183 117.753 92.831 118.471 95.036V95.044C118.651 95.5877 118.87 96.1178 119.127 96.63C119.449 97.286 120.416 98.71 121.467 100.857C122.553 103.059 123.394 105.373 123.975 107.758H123.977ZM115.054 99.314C115.688 99.194 116.072 98.814 115.911 97.952C115.75 97.09 115.105 96.501 114.471 96.619C114.129 96.7468 113.849 97.0014 113.689 97.33C113.53 97.6586 113.503 98.036 113.614 98.384C113.633 98.5466 113.687 98.7031 113.774 98.8422C113.86 98.9812 113.976 99.0995 114.113 99.1884C114.251 99.2773 114.406 99.3347 114.569 99.3564C114.731 99.3781 114.896 99.3636 115.052 99.314H115.054ZM99.907 105.179C100.592 105.047 101.007 104.629 100.834 103.703C100.661 102.777 99.962 102.131 99.274 102.263C98.9035 102.401 98.6004 102.676 98.4278 103.032C98.2551 103.387 98.2262 103.796 98.347 104.172C98.3671 104.348 98.426 104.518 98.5195 104.669C98.6131 104.819 98.7388 104.948 98.8879 105.044C99.0369 105.14 99.2054 105.202 99.3812 105.226C99.5571 105.249 99.736 105.233 99.905 105.179H99.907Z"></path>
    <path id="Vector_8" fill="#a84646" d="M121.946 166.563L117.389 173.658C118.584 175.733 118.913 178.196 118.305 180.512C117.356 184.658 114.605 190.603 112.026 195.251H74.631C77.411 191.171 88.569 171.051 91.231 167.962C93.663 165.138 95.762 164.625 95.762 164.625L100.777 156.336C100.777 156.336 110.253 163.336 116.777 165.836C117.879 166.298 119.045 166.592 120.235 166.708C120.809 166.769 121.39 166.72 121.946 166.563V166.563Z"></path>
    <path id="Vector_9" fill="#ffffff" d="M94.686 106.128C96.5009 106.045 98.3096 105.857 100.103 105.567C101.689 105.205 101.788 102.988 101.788 102.988C101.788 102.988 101.235 101.388 98.982 102.062C97.239 102.582 94.686 106.128 94.686 106.128Z"></path>
    <path id="Vector_10" fill="#ffffff" d="M109.7 100.267C111.518 100.229 113.33 100.041 115.117 99.706C117.374 99.058 116.627 96.49 116.627 96.49C116.627 96.49 116.308 95.772 114 96.201C112.806 96.421 109.7 100.267 109.7 100.267Z"></path>
    <path id="Vector_11" fill="#FFE8BB" d="M121.744 112.824C122.88 115.563 122.869 118.336 120.722 118.563C118.766 118.772 118.444 117.153 115.876 118.063C113.676 118.839 114.605 121.297 112.076 122.348C109.547 123.399 107.102 120.689 106.406 119.085C104.6 114.885 106.783 113.271 110.556 111.854C114.329 110.437 119.118 107.648 121.744 112.824Z"></path>
    <path id="Vector_12" fill="#313553" d="M111.1 93.857C111.759 93.3436 112.527 92.989 113.346 92.8206C114.164 92.6522 115.01 92.6746 115.818 92.886C114.104 93.3304 112.573 94.3047 111.445 95.67C110.115 97.216 109.723 98.886 108.705 98.212C107.687 97.538 108.839 95.622 111.1 93.857Z"></path>
    <path id="Vector_13" fill="#313553" d="M107.308 70.157C108.158 69.945 109.001 70.502 108.579 71.34L106.539 72.26L107.305 70.16L107.308 70.157Z"></path>
    <path id="Vector_14" fill="#FFE8BB" d="M92.3559 139.442L94.7659 138.622L92.3559 125.933C92.5249 125.893 92.6929 125.842 92.8649 125.787L93.1469 125.717C93.5279 126.666 94.2469 127.358 95.0809 126.917C94.9969 126.994 94.9199 127.071 94.8469 127.152C94.578 127.394 94.4104 127.729 94.3778 128.09C94.3451 128.451 94.4498 128.81 94.6709 129.097C95.1698 129.726 95.8033 130.236 96.5249 130.588C99.0249 131.976 100.744 133.705 101.257 136.071C101.629 138.159 102.306 140.181 103.268 142.071C104.213 143.91 104.868 144.181 106.993 146.053L103.583 151.686C92.3559 147.639 90.5649 138.617 90.5649 138.617C90.9126 138.54 91.2761 138.578 91.5996 138.727C91.9231 138.876 92.1888 139.127 92.3559 139.442V139.442Z"></path>
    <path id="Vector_15" fill="#a84646" d="M103.583 151.691L100.774 156.336L95.759 164.625C95.759 164.625 93.659 165.138 91.228 167.962C88.569 171.05 77.411 191.171 74.628 195.251H51.2C51.2 195.251 49.79 173.288 55.427 159.841C61.064 146.394 90.57 138.622 90.57 138.622C90.57 138.622 92.356 147.644 103.583 151.691Z"></path>
    <path id="Vector_16" fill="#313553" d="M102.217 97.208C102.33 98.424 101.037 97.249 99.048 97.692C94.848 98.626 95.854 99.538 92.598 103.139C92.656 102.974 94.667 97.673 97.246 96.531C99.869 95.373 102.107 95.992 102.217 97.208Z"></path>
    <path id="Vector_17" fill="#FFE8BB" d="M93.147 125.717L92.865 125.787C92.693 125.842 92.525 125.893 92.356 125.933C84.924 127.853 82.656 117.933 83.715 116.054C84.708 114.281 86.451 115.329 86.715 115.498C86.726 115.505 86.737 115.516 86.748 115.523C87.6941 116.256 88.5027 117.152 89.136 118.168C91.367 121.457 92.865 124.285 92.865 124.285C92.8698 124.776 92.9654 125.261 93.147 125.717V125.717Z"></path>
    <path id="Vector_18" fill="#a84646" d="M73.184 80.6549C74.191 82.3259 69.155 87.2159 61.935 91.5749C54.715 95.9339 48.041 98.113 47.035 96.439C46.029 94.765 51.061 89.879 58.28 85.523C65.499 81.167 72.173 78.9849 73.184 80.6549Z"></path>
    <path id="Vector_19" fill="#a84646" d="M59.931 58.7L73.184 80.6549C72.173 78.9849 65.503 81.164 58.284 85.523C51.065 89.882 46.023 94.769 47.034 96.439L33.781 74.4909C34.792 76.1609 41.463 73.981 48.681 69.622C55.899 65.263 60.939 60.377 59.931 58.7Z"></path>
    <path id="Vector_20" fill="#a84646" d="M59.931 58.7C60.939 60.374 55.906 65.26 48.682 69.619C41.458 73.978 34.792 76.158 33.782 74.488C32.772 72.818 37.812 67.927 45.031 63.568C52.25 59.209 58.924 57.033 59.931 58.7Z"></path>
    <path id="Vector_21" stroke="#313553" stroke-linecap="round" stroke-linejoin="round" stroke-width=".733" d="M106.993 116.809L108.154 116.882C108.806 115.971 109.566 115.143 110.418 114.417C111.028 114.001 111.725 113.727 112.455 113.617"></path>
    <path id="Vector_22" stroke="#313553" stroke-linecap="round" stroke-linejoin="round" stroke-width=".733" d="M113.535 113.19C114.583 112.863 115.657 112.621 116.744 112.468C117.551 112.613 118.345 112.819 119.121 113.084L119.675 112.219"></path>
    <path id="Vector_23" stroke="#313553" stroke-linecap="round" stroke-linejoin="round" stroke-width=".733" d="M111.557 117.791C112.693 117.772 113.821 117.596 114.909 117.267C115.96 116.836 116.971 116.316 117.931 115.71"></path>
    <path id="Vector_24" stroke="#313553" stroke-linecap="round" stroke-linejoin="round" stroke-width=".733" d="M107.36 108.168C107.379 107.862 107.494 107.57 107.689 107.333C107.822 107.161 108.015 107.046 108.229 107.009C108.443 106.972 108.664 107.016 108.847 107.133C109.539 107.474 110.314 107.612 111.081 107.533C111.975 107.433 112.535 106.551 112.881 106.024C112.961 105.909 113.073 105.821 113.204 105.772C113.335 105.723 113.478 105.715 113.613 105.749C113.749 105.783 113.871 105.858 113.962 105.964C114.054 106.069 114.112 106.2 114.127 106.339"></path>
    <path id="Vector_25" stroke="#313553" stroke-linecap="round" stroke-linejoin="round" stroke-width=".733" d="M105.561 106.615C105.048 107.736 105.382 109.574 106.752 109.388"></path>
    <path id="Vector_26" stroke="#313553" stroke-linecap="round" stroke-linejoin="round" stroke-width=".733" d="M114.36 103.835C114.36 103.835 116.971 105.435 115.294 107.025"></path>
    <path id="Vector_27" stroke="#313553" stroke-linecap="round" stroke-linejoin="round" stroke-width=".733" d="M92.6 103.139C92.658 102.974 94.669 97.673 97.248 96.531C99.871 95.373 102.109 95.992 102.219 97.208C102.329 98.424 101.039 97.249 99.05 97.692C94.851 98.626 95.854 99.538 92.6 103.139Z"></path>
    <path id="Vector_28" stroke="#313553" stroke-linecap="round" stroke-linejoin="round" stroke-width=".733" d="M108.7 98.212C109.718 98.886 110.11 97.212 111.44 95.67C112.568 94.3047 114.099 93.3304 115.813 92.886C115.005 92.6746 114.159 92.6522 113.341 92.8206C112.522 92.989 111.754 93.3436 111.095 93.857C108.839 95.622 107.686 97.542 108.7 98.212Z"></path>
    <path id="Vector_29" stroke="#313553" stroke-linecap="round" stroke-linejoin="round" stroke-width=".733" d="M94.686 105.743C94.686 105.743 96.506 102.934 98.056 102.325C99.0942 101.961 100.203 101.846 101.294 101.988"></path>
    <path id="Vector_30" fill="#313553" d="M99.722 103.787C99.6262 103.242 99.361 102.741 98.964 102.355C98.55 101.97 98.18 102.435 97.693 102.531C96.719 102.714 96.008 103.201 96.235 104.443C96.283 104.855 96.4848 105.234 96.8 105.503C97.1152 105.773 97.5206 105.913 97.935 105.897C98.091 105.896 98.2466 105.881 98.4 105.853C98.6344 105.829 98.8603 105.752 99.061 105.628C99.2616 105.504 99.4317 105.337 99.5588 105.138C99.6858 104.94 99.7664 104.715 99.7947 104.481C99.823 104.247 99.7981 104.01 99.722 103.787V103.787Z"></path>
    <path id="Vector_31" stroke="#313553" stroke-linecap="round" stroke-linejoin="round" stroke-width=".733" d="M110.125 100.157C110.125 100.157 111.579 97.347 113.132 96.743C114.17 96.3768 115.28 96.2613 116.371 96.406"></path>
    <path id="Vector_32" fill="#313553" d="M114.506 98.285C114.486 98.0664 114.421 97.8543 114.314 97.6624C114.207 97.4706 114.062 97.3031 113.887 97.1707C113.712 97.0384 113.511 96.9441 113.297 96.8938C113.083 96.8436 112.861 96.8386 112.646 96.8791C112.43 96.9196 112.225 97.0048 112.044 97.1291C111.863 97.2534 111.71 97.4141 111.595 97.601C111.48 97.7878 111.405 97.9967 111.375 98.2142C111.345 98.4317 111.361 98.653 111.422 98.864C111.451 99.0702 111.521 99.2685 111.629 99.4468C111.736 99.625 111.879 99.7796 112.048 99.901C112.306 100.072 112.61 100.16 112.92 100.153C113.058 100.152 113.195 100.139 113.33 100.113C113.537 100.09 113.736 100.021 113.913 99.9116C114.09 99.8019 114.24 99.6541 114.353 99.479C114.466 99.3038 114.538 99.1058 114.564 98.8992C114.591 98.6927 114.571 98.4828 114.506 98.285V98.285Z"></path>
    <path id="Vector_33" stroke="#313553" stroke-linecap="round" stroke-linejoin="round" stroke-width=".733" d="M108.7 98.212C108.859 98.7762 109.132 99.3018 109.503 99.7561C109.873 100.21 110.333 100.584 110.854 100.853"></path>
    <path id="Vector_34" stroke="#313553" stroke-linecap="round" stroke-linejoin="round" stroke-width=".733" d="M86.715 115.5C86.451 115.331 84.708 114.283 83.715 116.056C82.66 117.932 84.924 127.856 92.356 125.935C92.525 125.895 92.693 125.844 92.865 125.789"></path>
    <path id="Vector_35" stroke="#313553" stroke-linecap="round" stroke-linejoin="round" stroke-width=".733" d="M87.4 118.168C86.034 118.168 85.532 120.395 86.9 122.41C87.3001 122.981 87.8687 123.413 88.5262 123.644C89.1837 123.876 89.8973 123.897 90.567 123.703"></path>
    <path id="Vector_36" stroke="#313553" stroke-linecap="round" stroke-linejoin="round" stroke-width=".733" d="M95.158 126.882C95.1333 126.897 95.1076 126.91 95.081 126.922C94.25 127.358 93.528 126.666 93.147 125.722C92.9655 125.266 92.8699 124.781 92.865 124.29C92.865 124.29 91.365 121.462 89.136 118.173C88.5027 117.157 87.6942 116.261 86.748 115.528C86.737 115.521 86.726 115.51 86.715 115.502C86.3784 115.213 85.9577 115.04 85.515 115.008"></path>
    <path id="Vector_37" stroke="#313553" stroke-linecap="round" stroke-linejoin="round" stroke-width=".733" d="M81.33 99.113C80.7786 104.739 82.2643 110.376 85.517 115"></path>
    <path id="Vector_38" stroke="#313553" stroke-linecap="round" stroke-linejoin="round" stroke-width=".733" d="M118.469 95.0321C117.751 92.8321 118.477 92.1791 116.916 89.8421C114.162 85.7071 106.993 81.326 102.224 81.326C96.924 81.326 86.803 83.6111 83.03 91.9851C82.5916 92.9812 82.2436 94.0147 81.99 95.0731C81.6642 96.3802 81.4449 97.7115 81.334 99.0541"></path>
    <path id="Vector_39" stroke="#313553" stroke-linecap="round" stroke-linejoin="round" stroke-width=".733" d="M121.469 100.853C120.418 98.706 119.451 97.282 119.129 96.626C118.872 96.1138 118.653 95.5837 118.473 95.04"></path>
    <path id="Vector_40" stroke="#313553" stroke-linecap="round" stroke-linejoin="round" stroke-width=".733" d="M82.118 94.567C82.064 94.7326 82.0212 94.9017 81.99 95.073C81.268 98.824 86.202 100.838 87.345 101.93C88.539 103.069 86.945 105.366 87.345 108.739C87.495 110.625 88.0694 112.453 89.0253 114.086C89.9811 115.718 91.2938 117.114 92.865 118.168C96.492 120.468 99.876 119.043 103.726 119.095C102.982 115.944 104.004 112.867 108.004 110.864C110.942 109.243 114.213 108.319 117.565 108.164C118.84 108.101 120.099 108.465 121.144 109.199C122.188 109.933 122.958 110.994 123.33 112.215C123.33 112.215 124.22 108.754 123.975 107.754C123.396 105.37 122.558 103.056 121.475 100.854"></path>
    <path id="Vector_41" stroke="#313553" stroke-linecap="round" stroke-linejoin="round" stroke-width=".733" d="M126.458 115.014C126.617 115.051 126.782 115.052 126.942 115.016C127.101 114.98 127.25 114.909 127.377 114.807C127.505 114.705 127.608 114.575 127.677 114.427C127.747 114.28 127.783 114.118 127.781 113.955C127.967 112.585 126.173 111.545 126.173 111.545C126.479 111.537 126.77 111.409 126.982 111.188C127.194 110.967 127.312 110.672 127.308 110.366C127.308 109.23 125.561 107.955 125.561 107.955C124.597 105.38 123.216 102.982 121.473 100.855V100.855"></path>
    <path id="Vector_42" stroke="#313553" stroke-linecap="round" stroke-linejoin="round" stroke-width=".733" d="M126.444 115.01C126.433 115.009 126.422 115.006 126.411 115.003C126.422 115.006 126.433 115.009 126.444 115.01V115.01Z"></path>
    <path id="Vector_43" stroke="#313553" stroke-linecap="round" stroke-linejoin="round" stroke-width=".733" d="M126.444 115.01C126.444 115.01 126.451 115.01 126.458 115.01"></path>
    <path id="Vector_44" stroke="#313553" stroke-linecap="round" stroke-linejoin="round" stroke-width=".733" d="M128.854 119.479C128.877 119.252 128.847 119.023 128.765 118.81C128.684 118.597 128.554 118.406 128.385 118.252C128.385 118.252 129.235 118.252 129.279 117.025C129.323 115.889 126.828 115.125 126.458 115.014"></path>
    <path id="Vector_45" stroke="#313553" stroke-linecap="round" stroke-linejoin="round" stroke-width=".733" d="M125.308 129.072C126.403 128.149 127.601 127.272 129.242 125.988C129.909 125.446 130.518 124.836 131.059 124.168C132.269 122.691 133.327 121.095 134.217 119.406C134.496 118.993 134.683 118.525 134.767 118.033C134.851 117.542 134.83 117.038 134.704 116.556C134.204 115.388 132.462 115.534 131.341 117.117C130.751 118.117 130.091 119.074 129.367 119.981C128.602 120.794 127.749 121.52 126.825 122.146C124.466 123.809 122.015 125.6 120.059 126.926C115.459 130.054 110.847 132.637 107.708 132.435C104.569 132.233 103.543 128.263 100.759 126.626C98.176 125.109 96.147 125.926 95.081 126.926C94.997 127.003 94.92 127.08 94.847 127.161C94.578 127.403 94.4104 127.738 94.3778 128.099C94.3452 128.46 94.4499 128.819 94.671 129.106C95.1696 129.735 95.8028 130.244 96.524 130.597C99.024 131.985 100.744 133.714 101.257 136.08C101.629 138.168 102.307 140.19 103.268 142.08C104.213 143.919 104.868 144.19 106.993 146.062"></path>
    <path id="Vector_46" stroke="#313553" stroke-linecap="round" stroke-linejoin="round" stroke-width=".733" d="M131.993 128.743C132.45 129.588 132.671 130.541 132.635 131.501C132.598 132.461 132.304 133.393 131.784 134.201C131.328 135.009 130.775 135.758 130.136 136.431"></path>
    <path id="Vector_47" stroke="#313553" stroke-linecap="round" stroke-linejoin="round" stroke-width=".733" d="M131.784 134.2C132.334 134.839 132.709 135.611 132.872 136.438C132.943 137.032 132.901 137.633 132.748 138.211C132.444 139.443 131.819 140.572 130.938 141.485C129.468 143.055 127.895 144.525 126.228 145.885C125.439 146.525 124.609 147.114 123.744 147.647"></path>
    <path id="Vector_48" stroke="#313553" stroke-linecap="round" stroke-linejoin="round" stroke-width=".733" d="M126.228 145.882L118.488 162.182L116.854 165.625"></path>
    <path id="Vector_49" stroke="#313553" stroke-linecap="round" stroke-linejoin="round" stroke-width=".733" d="M106.993 146.058L103.583 151.691L100.774 156.336L95.7591 164.625C95.7591 164.625 93.6591 165.138 91.2281 167.962C88.5691 171.05 77.4111 191.171 74.6281 195.251"></path>
    <path id="Vector_50" stroke="#313553" stroke-linecap="round" stroke-linejoin="round" stroke-width=".733" d="M100.774 156.336C100.774 156.336 110.25 163.336 116.774 165.836C117.876 166.298 119.042 166.592 120.232 166.708C120.808 166.769 121.39 166.719 121.947 166.561C124.082 165.751 118.489 162.18 118.489 162.18"></path>
    <path id="Vector_51" stroke="#313553" stroke-linecap="round" stroke-linejoin="round" stroke-width=".733" d="M121.946 166.563L117.389 173.658C118.584 175.733 118.913 178.196 118.305 180.512C117.356 184.658 114.605 190.603 112.026 195.251"></path>
    <path id="Vector_52" stroke="#313553" stroke-linecap="round" stroke-linejoin="round" stroke-width=".733" d="M51.2 195.251C51.2 195.251 49.79 173.288 55.427 159.841C61.064 146.394 90.57 138.622 90.57 138.622C90.57 138.622 92.361 147.644 103.588 151.691"></path>
    <path id="Vector_53" stroke="#313553" stroke-linecap="round" stroke-linejoin="round" stroke-width=".733" d="M92.356 125.933L94.766 138.622L95.158 140.684"></path>
    <path id="Vector_54" stroke="#313553" stroke-linecap="round" stroke-linejoin="round" stroke-width=".733" d="M91.1 139.871L92.356 139.442L94.766 138.622H94.77"></path>
    <path id="Vector_55" stroke="#313553" stroke-linecap="round" stroke-linejoin="round" stroke-width=".733" d="M132.909 136.431C132.909 136.431 152.531 137.175 160.191 145.168C172.597 158.113 168.568 195.251 168.568 195.251"></path>
    <path id="Vector_56" stroke="#313553" stroke-linecap="round" stroke-linejoin="round" stroke-width=".733" d="M152.03 189.724C151.308 192.856 150.715 195.251 150.715 195.251"></path>
    <path id="Vector_57" stroke="#313553" stroke-linecap="round" stroke-linejoin="round" stroke-width=".733" d="M154.579 176.292C154.484 178.702 153.114 185.035 152.033 189.72"></path>
    <path id="Vector_58" stroke="#313553" stroke-linecap="round" stroke-linejoin="round" stroke-width=".733" d="M106.411 119.084C107.111 120.684 109.557 123.402 112.081 122.347C114.605 121.292 113.675 118.838 115.881 118.062C118.449 117.153 118.771 118.772 120.727 118.562C122.874 118.335 122.885 115.562 121.749 112.823C119.123 107.647 114.335 110.434 110.566 111.852C106.797 113.27 104.605 114.886 106.411 119.084Z"></path>
    <path id="Vector_59" stroke="#313553" stroke-linecap="round" stroke-linejoin="round" stroke-width=".733" d="M160.476 79.589L160.487 79.6C160.714 79.948 166.095 88.26 158.454 93.124C150.649 98.095 144.865 87.106 144.865 87.106C144.865 87.106 143.737 96.606 134.839 97.306C133.262 97.3943 131.689 97.0867 130.261 96.4111C128.834 95.7355 127.598 94.7134 126.667 93.438C125.547 92.0534 124.652 90.501 124.015 88.838"></path>
    <path id="Vector_60" stroke="#313553" stroke-linecap="round" stroke-linejoin="round" stroke-width=".733" d="M136.2 20.6079C136.3 20.4319 139.672 14.6229 146.372 15.9819C153.752 17.4819 152.698 25.2349 152.698 25.2349C152.698 25.2349 168.28 13.9529 179.276 28.9929C191.086 45.1459 175.807 56.7509 175.807 56.7509C175.807 56.7509 190.031 66.1939 180.778 77.7579C171.708 89.0949 160.914 79.9579 160.492 79.5999"></path>
    <path id="Vector_61" stroke="#313553" stroke-linecap="round" stroke-linejoin="round" stroke-width=".733" d="M52.8691 33.8C52.7851 33.6 50.0381 26.943 54.9501 23.727C60.2981 20.227 65.5171 26.511 65.5171 26.511C65.5171 26.511 67.6931 9.62304 84.5941 5.86504C101.495 2.10704 109.762 16.85 109.762 16.85C109.762 16.85 116.107 6.05004 127.609 9.37404C136.158 11.843 136.195 20.462 136.195 20.605"></path>
    <path id="Vector_62" stroke="#313553" stroke-linecap="round" stroke-linejoin="round" stroke-width=".733" d="M75.561 102.036C75.561 102.036 75.034 106.992 68.488 108.82C61.942 110.648 58.594 104.761 58.594 104.761C58.594 104.761 42.668 117.574 27.507 109.4C14.478 102.371 14.115 85.433 24.602 73.32C24.602 73.32 14.635 72.258 16.283 63.196C18.056 53.456 29.675 54.73 29.675 54.73C29.675 54.73 21.946 44.154 30.95 34.509C39.862 24.963 52.609 33.615 52.866 33.791"></path>
    <path id="Vector_63" stroke="#313553" stroke-linecap="round" stroke-linejoin="round" stroke-width=".733" d="M75.627 121.751C77.0999 121.751 78.294 120.557 78.294 119.084C78.294 117.611 77.0999 116.417 75.627 116.417C74.154 116.417 72.96 117.611 72.96 119.084C72.96 120.557 74.154 121.751 75.627 121.751Z"></path>
    <path id="Vector_64" stroke="#313553" stroke-linecap="round" stroke-linejoin="round" stroke-width=".733" d="M65.1261 124.739C67.222 124.739 68.9211 122.712 68.9211 120.212C68.9211 117.712 67.222 115.685 65.1261 115.685C63.0301 115.685 61.3311 117.712 61.3311 120.212C61.3311 122.712 63.0301 124.739 65.1261 124.739Z"></path>
    <path id="Vector_65" stroke="#313553" stroke-linecap="round" stroke-linejoin="round" stroke-width=".733" d="M56.814 118.648C55.92 120.941 53.027 122.878 50.734 121.988C48.441 121.098 47.616 117.71 48.51 115.417C49.404 113.124 52.298 111.186 54.591 112.08C56.884 112.974 57.708 116.355 56.814 118.648Z"></path>
    <path id="Vector_66" stroke="#313553" stroke-dasharray="4.4 4.4" stroke-linecap="round" stroke-linejoin="round" stroke-width=".733" d="M59.931 58.7C60.939 60.374 55.906 65.26 48.682 69.619C41.458 73.978 34.792 76.158 33.782 74.488C32.772 72.818 37.812 67.927 45.031 63.568C52.25 59.209 58.924 57.033 59.931 58.7Z"></path>
    <path id="Vector_67" stroke="#313553" stroke-dasharray="4.4 4.4" stroke-linecap="round" stroke-linejoin="round" stroke-width=".733" d="M73.184 80.6549C74.191 82.3259 69.155 87.2159 61.935 91.5749C54.715 95.9339 48.041 98.113 47.035 96.439C46.029 94.765 51.061 89.879 58.28 85.523C65.499 81.167 72.173 78.9849 73.184 80.6549Z"></path>
    <path id="Vector_68" stroke="#313553" stroke-dasharray="4.4 4.4" stroke-linecap="round" stroke-linejoin="round" stroke-width=".733" d="M33.781 74.491L47.034 96.439"></path>
    <path id="Vector_69" stroke="#313553" stroke-dasharray="4.4 4.4" stroke-linecap="round" stroke-linejoin="round" stroke-width=".733" d="M59.931 58.703L73.184 80.655"></path>
    <path id="Vector_70" stroke="#313553" stroke-linecap="round" stroke-linejoin="round" stroke-width=".733" d="M28.811 66.252L36.789 61.439"></path>
    <path id="Vector_71" stroke="#313553" stroke-linecap="round" stroke-linejoin="round" stroke-width=".733" d="M46.983 55.282L54.961 50.469"></path>
    <path id="Vector_72" stroke="#313553" stroke-linecap="round" stroke-linejoin="round" stroke-width=".733" d="M41.642 60.37C41.8443 60.4654 42.0671 60.509 42.2904 60.4968C42.5137 60.4845 42.7304 60.4169 42.921 60.3C43.0759 60.208 43.211 60.0864 43.3187 59.942C43.4263 59.7975 43.5043 59.6333 43.5481 59.4586C43.592 59.2839 43.6008 59.1022 43.5741 58.9241C43.5475 58.746 43.4858 58.5749 43.3927 58.4207C43.2996 58.2666 43.1769 58.1323 43.0317 58.0258C42.8865 57.9192 42.7217 57.8425 42.5467 57.7999C42.3717 57.7574 42.19 57.7499 42.012 57.7778C41.8341 57.8058 41.6635 57.8688 41.51 57.963L41.47 57.897C41.7719 57.7062 41.9869 57.4047 42.0691 57.0572C42.1512 56.7097 42.0939 56.3438 41.9094 56.038C41.725 55.7323 41.428 55.511 41.0823 55.4216C40.7365 55.3322 40.3696 55.3819 40.06 55.56C39.8674 55.6742 39.7062 55.8346 39.591 56.0266C39.4758 56.2186 39.4102 56.4363 39.4 56.66"></path>
    <path id="Vector_73" stroke="#313553" stroke-linecap="round" stroke-linejoin="round" stroke-width=".733" d="M115.29 42.659C115.955 46.9193 114.932 51.271 112.436 54.7876C109.941 58.3042 106.172 60.7079 101.931 61.487C101.788 61.509 101.645 61.535 101.502 61.557C97.1734 62.222 92.7578 61.1431 89.2234 58.5572C85.689 55.9712 83.3244 52.0892 82.6481 47.7623C81.9718 43.4355 83.0389 39.017 85.6156 35.4758C88.1922 31.9346 92.068 29.5598 96.393 28.872C96.536 28.85 96.675 28.828 96.818 28.813C101.094 28.2573 105.419 29.3937 108.869 31.9802C112.32 34.5666 114.624 38.3985 115.29 42.659V42.659Z"></path>
    <path id="Vector_74" stroke="#313553" stroke-dasharray="4.4 4.4" stroke-linecap="round" stroke-linejoin="round" stroke-width=".733" d="M96.389 26.066L96.818 28.813L99.374 45.15L101.931 61.487L102.36 64.231"></path>
    <path id="Vector_75" stroke="#313553" stroke-dasharray="4.4 4.4" stroke-linecap="round" stroke-linejoin="round" stroke-width=".733" d="M80.2939 48.132L82.6049 47.769L99.3739 45.15L115.29 42.659L118.455 42.165"></path>
    <path id="Vector_76" stroke="#313553" stroke-linecap="round" stroke-linejoin="round" stroke-width=".733" d="M67.089 42.949C64.232 50.271 67.202 64.267 78.462 65.732C89.722 67.197 88.532 71.791 92.262 74.714C95.992 77.637 100.462 76.388 103.87 73.67"></path>
    <path id="Vector_77" stroke="#313553" stroke-linecap="round" stroke-linejoin="round" stroke-width=".733" d="M128.517 52.3191L112.462 69.5931L112.33 67.6921L110.612 67.8751L110.568 66.0551L108.766 66.1571L124.821 48.8831"></path>
    <path id="Vector_78" stroke="#313553" stroke-linecap="round" stroke-linejoin="round" stroke-width=".733" d="M107.305 70.157L106.539 72.26L108.579 71.34L112.462 69.593"></path>
    <path id="Vector_79" stroke="#313553" stroke-linecap="round" stroke-linejoin="round" stroke-width=".733" d="M108.766 66.157L107.308 70.157"></path>
    <path id="Vector_80" stroke="#313553" stroke-linecap="round" stroke-linejoin="round" stroke-width=".733" d="M107.305 70.157C108.155 69.945 108.998 70.502 108.576 71.34"></path>
    <path id="Vector_81" stroke="#313553" stroke-linecap="round" stroke-linejoin="round" stroke-width=".733" d="M126.667 50.601L112.579 65.758"></path>
    <path id="Vector_82" stroke="#313553" stroke-linecap="round" stroke-linejoin="round" stroke-width=".733" d="M130.4 50.2931L128.517 52.3191L126.667 50.6011L124.821 48.8831L126.704 46.8571"></path>
    <path id="Vector_83" stroke="#313553" stroke-linecap="round" stroke-linejoin="round" stroke-width=".733" d="M130.4 50.2929L131.239 49.3879C131.465 49.145 131.64 48.86 131.756 48.5492C131.871 48.2384 131.924 47.9079 131.912 47.5766C131.9 47.2453 131.822 46.9196 131.684 46.6182C131.546 46.3168 131.35 46.0456 131.107 45.8199C130.864 45.5943 130.579 45.4188 130.268 45.3033C129.957 45.1879 129.627 45.1347 129.296 45.147C128.964 45.1592 128.639 45.2366 128.337 45.3748C128.036 45.5129 127.765 45.709 127.539 45.9519L126.7 46.8569L130.4 50.2929Z"></path>
    <path id="Vector_84" stroke="#313553" stroke-linecap="round" stroke-linejoin="round" stroke-width=".733" d="M131.213 124.3C131.699 124.913 132.017 125.642 132.135 126.416C132.253 127.189 132.168 127.98 131.887 128.71C131.341 130.172 130.451 131.481 129.293 132.527"></path>
    <path id="Vector_85" stroke="#313553" stroke-linecap="round" stroke-linejoin="round" stroke-width=".733" d="M94.671 129.1C94.671 129.1 95.832 127.58 97.015 128.191C98.198 128.802 98.73 129.1 98.73 129.1"></path>
    <path id="Vector_86" stroke="#313553" stroke-linecap="round" stroke-linejoin="round" stroke-width=".733" d="M90.5649 138.622C90.9121 138.544 91.2751 138.582 91.5985 138.73C91.922 138.878 92.188 139.128 92.3559 139.442"></path>
    <path id="Vector_87" stroke="#313553" stroke-linecap="round" stroke-linejoin="round" stroke-width=".733" d="M132.788 118.607C132.788 118.607 132.883 116.333 134.704 116.556"></path>
    <path id="Vector_88" stroke="#313553" stroke-linecap="round" stroke-linejoin="round" stroke-width=".733" d="M72.613 97.974C72.613 97.974 72.693 101.49 75.572 101.981C76.0477 102.057 76.5324 102.057 77.008 101.981C80.898 101.435 81.29 99.472 81.33 99.109C81.33 99.072 81.33 99.05 81.33 99.05"></path>
    <path id="Vector_89" stroke="#313553" stroke-linecap="round" stroke-linejoin="round" stroke-width=".733" d="M118.469 95.032V95.04C118.898 95.8229 119.571 96.4443 120.386 96.8098C121.2 97.1753 122.112 97.2649 122.982 97.065C125.682 96.6 126.663 93.439 126.663 93.439"></path>
    <path id="Vector_90" stroke="#313553" stroke-linecap="round" stroke-linejoin="round" stroke-width=".733" d="M167.436 52.82L141.729 31.022L133.433 76.688L167.436 52.82Z"></path>
    <path id="Vector_91" stroke="#313553" stroke-linecap="round" stroke-linejoin="round" stroke-width=".733" d="M161.205 52.535L138.847 68.2301L144.301 38.201L161.205 52.535Z"></path>
    <path id="Vector_92" stroke="#313553" stroke-dasharray="4.4 4.4" stroke-linecap="round" stroke-linejoin="round" stroke-width=".733" d="M136.729 79.619L170.733 55.751"></path>
    <path id="Vector_93" stroke="#313553" stroke-linecap="round" stroke-linejoin="round" stroke-width=".733" d="M157.33 184.764C155.664 186.521 153.894 188.175 152.03 189.72V189.72"></path>
  </g></g></svg>